<svg version="1.1" id="Layer_1" xmlns="http://www.w3.org/2000/svg" xmlns:xlink="http://www.w3.org/1999/xlink" x="0px" y="0px"
	 width="100%" viewBox="0 0 227 345" enable-background="new 0 0 227 345" xml:space="preserve">
<path fill="#FFFFFF" opacity="1.000000" stroke="none" 
	d="
M100.000000,346.000000 
	C66.666664,346.000000 33.833332,346.000000 1.000000,346.000000 
	C1.000000,231.000000 1.000000,116.000000 1.000000,1.000000 
	C76.666664,1.000000 152.333328,1.000000 228.000000,1.000000 
	C228.000000,116.000000 228.000000,231.000000 228.000000,346.000000 
	C185.500000,346.000000 143.000000,346.000000 100.000000,346.000000 
M137.988571,325.159119 
	C130.647552,311.312531 123.306541,297.465942 115.217896,282.209198 
	C105.014267,296.610413 98.447594,311.015198 90.810806,326.834198 
	C107.581467,326.834198 122.790543,326.834198 138.526825,326.891083 
	C138.365479,326.556641 138.204132,326.222168 137.988571,325.159119 
M99.292442,279.084503 
	C110.554710,282.716248 121.812363,281.275024 132.890121,278.509399 
	C153.370453,273.396454 169.548416,261.441376 182.301758,245.045288 
	C200.856689,221.190475 209.764755,193.490677 211.851257,163.677734 
	C213.093719,145.924606 210.998306,128.360489 206.172424,111.044876 
	C198.454498,83.352448 185.135056,59.432583 161.602478,42.218056 
	C143.580978,29.034985 123.279358,23.277056 101.059914,27.169744 
	C83.100937,30.316031 67.422066,38.860298 54.888321,51.962448 
	C47.634476,59.545250 41.759113,68.574989 35.997948,77.431389 
	C23.052200,97.332352 18.023996,119.927711 16.198057,143.111603 
	C14.801929,160.838226 16.965420,178.417679 21.791824,195.743774 
	C29.506475,223.438217 42.805225,247.300140 66.242470,264.674927 
	C75.862595,271.806610 86.298538,277.375092 99.292442,279.084503 
z"/>
<path fill="#EB462B" opacity="1.000000" stroke="none" 
	d="
M98.858459,279.048462 
	C86.298538,277.375092 75.862595,271.806610 66.242470,264.674927 
	C42.805225,247.300140 29.506475,223.438217 21.791824,195.743774 
	C16.965420,178.417679 14.801929,160.838226 16.198057,143.111603 
	C18.023996,119.927711 23.052200,97.332352 35.997948,77.431389 
	C41.759113,68.574989 47.634476,59.545250 54.888321,51.962448 
	C67.422066,38.860298 83.100937,30.316031 101.059914,27.169744 
	C123.279358,23.277056 143.580978,29.034985 161.602478,42.218056 
	C185.135056,59.432583 198.454498,83.352448 206.172424,111.044876 
	C210.998306,128.360489 213.093719,145.924606 211.851257,163.677734 
	C209.764755,193.490677 200.856689,221.190475 182.301758,245.045288 
	C169.548416,261.441376 153.370453,273.396454 132.890121,278.509399 
	C121.812363,281.275024 110.554710,282.716248 98.858459,279.048462 
M79.971481,104.820572 
	C79.980988,102.158752 80.369522,99.429436 79.910309,96.851097 
	C79.237869,93.075531 78.201683,89.318192 76.872543,85.718483 
	C75.367027,81.641121 67.133354,81.569252 65.345657,85.857758 
	C61.869244,94.197319 60.964455,103.077484 66.116623,111.422455 
	C68.498589,115.280518 74.551903,115.215897 76.909233,111.314339 
	C78.000084,109.508896 78.835243,107.548965 79.971481,104.820572 
z"/>
<path fill="#EB462B" opacity="1.000000" stroke="none" 
	d="
M137.999619,326.834198 
	C122.790543,326.834198 107.581467,326.834198 90.810806,326.834198 
	C98.447594,311.015198 105.014267,296.610413 115.217896,282.209198 
	C123.306541,297.465942 130.647552,311.312531 137.999985,325.759888 
	C138.011398,326.360687 137.999619,326.834198 137.999619,326.834198 
z"/>
<path fill="#EB462B" opacity="1.000000" stroke="none" 
	d="
M138.263214,326.862640 
	C137.999619,326.834198 138.011398,326.360687 138.027100,326.124207 
	C138.204132,326.222168 138.365479,326.556641 138.263214,326.862640 
z"/>
<path fill="#FFFFFF" opacity="1.000000" stroke="none" 
	d="
M79.878906,105.239822 
	C78.835243,107.548965 78.000084,109.508896 76.909233,111.314339 
	C74.551903,115.215897 68.498589,115.280518 66.116623,111.422455 
	C60.964455,103.077484 61.869244,94.197319 65.345657,85.857758 
	C67.133354,81.569252 75.367027,81.641121 76.872543,85.718483 
	C78.201683,89.318192 79.237869,93.075531 79.910309,96.851097 
	C80.369522,99.429436 79.980988,102.158752 79.878906,105.239822 
z"/>
</svg>