<svg width="120" height="147" viewBox="0 0 120 147" fill="none" xmlns="http://www.w3.org/2000/svg">
<g clip-path="url(#clip0_205_4)">
<path d="M56 148C37.3333 148 19.1667 148 1 148C1 99 1 50 1 1C41 1 81 1 121 1C121 50 121 99 121 148C99.5 148 78 148 56 148ZM26.9848 87.7495C26.9899 88.1732 26.9951 88.5969 26.0958 89.1859C22.7304 89.1125 19.365 89.0391 15.8434 88.569C15.6935 88.3154 15.4839 88.129 15.0777 87.0806C15.1301 80.3836 15.1826 73.6866 15.5766 66.7842C15.782 66.6031 15.9223 66.3808 16.9161 65.9162C23.1886 65.9162 29.4611 65.9162 36.0909 65.9162C35.9065 63.7755 35.7863 62.3805 35.6794 61.1387C26.8619 61.1387 18.4729 61.1387 10.2679 61.1387C10.2679 72.4426 10.2679 83.3334 10.2679 94.0786C22.4333 94.0786 34.1844 94.0786 45.9819 94.0786C45.9819 88.8284 45.9819 83.9503 45.9819 79.0458C44.0991 79.0458 42.6111 79.0458 40.4972 78.9665C39.709 78.3267 38.9207 77.6869 38.3844 76.4361C41.6857 72.5788 44.987 68.7215 48.4069 64.7255C46.8434 63.5319 45.6886 62.6503 44.3456 61.625C38.8762 67.7799 33.5247 73.8021 28.0061 80.0125C25.9142 78.1158 24.121 76.4899 21.8366 74.4186C20.5359 75.5459 19.3761 76.5513 18.2193 77.5539C21.6369 81.2902 24.3005 84.2023 26.9848 87.7495ZM43.2971 112.478C44.9153 110.617 46.5335 108.757 48.3769 106.637C46.9157 105.452 45.7167 104.479 44.3393 103.362C38.7315 109.659 33.3939 115.652 28.0137 121.693C25.7025 119.636 23.9962 118.117 22.0975 116.427C20.6688 117.526 19.4484 118.464 18.2092 119.417C21.6471 123.132 24.3355 126.036 27.0007 129.581C26.9965 130.007 26.9924 130.434 26.082 131C22.72 130.943 19.358 130.886 15.8218 130.483C15.6704 130.263 15.4702 130.105 15.0858 129.079C15.1323 122.382 15.1788 115.686 15.59 108.739C15.8094 108.526 15.9461 108.269 16.9163 107.751C23.1752 107.751 29.434 107.751 36.0078 107.751C35.9082 105.591 35.8427 104.171 35.7717 102.633C27.0217 102.633 18.6139 102.633 10.1048 102.633C10.1048 113.871 10.1048 124.787 10.1048 135.887C22.253 135.887 34.1349 135.887 46.0134 135.887C46.0134 130.692 46.0134 125.819 46.0134 120.808C44.2311 120.808 42.8279 120.808 40.8787 120.808C40.8787 124.063 40.8787 127.033 40.5069 130.184C40.2723 130.347 40.1053 130.562 39.1017 130.99C35.7384 130.948 32.3751 130.905 29.0071 130.274C29.0159 129.881 29.0247 129.487 29.3193 128.485C33.1291 124.287 36.9388 120.09 41.4631 115.874C41.9887 114.952 42.5143 114.029 43.2971 112.478ZM106.223 75.5208C106.229 79.8538 106.645 84.2397 106.093 88.5003C105.748 91.163 103.944 93.6366 102.795 96.1951C102.191 95.9763 101.587 95.7576 100.984 95.5388C100.984 87.4667 100.984 79.3946 100.984 71.024C99.0955 71.1175 97.6976 71.1867 96.2053 71.2606C96.2053 94.0162 96.2053 116.41 96.2053 139.111C98.0351 138.488 99.5087 137.985 101.072 137.453C101.072 126.918 101.161 116.593 101.015 106.271C100.974 103.341 101.62 101.416 104.463 100.003C109.458 97.5197 111.68 93.0803 111.73 87.584C111.79 80.9182 111.682 74.2507 111.765 67.5855C111.828 62.5979 109.699 58.7521 105.502 56.3854C90.7091 48.0434 75.7007 48.0185 60.785 56.0386C56.0244 58.5983 53.7369 62.742 53.9791 68.4111C54.2633 75.0652 54.0141 81.741 54.0487 88.4071C54.076 93.6554 56.234 98.09 60.8765 100.333C64.4829 102.075 64.8377 104.405 64.7846 107.773C64.6227 118.048 64.7258 128.326 64.7258 138.697C66.7223 138.697 68.1169 138.697 69.6034 138.697C69.6034 116.006 69.6034 93.6118 69.6034 70.9005C67.816 71.0822 66.4024 71.2259 64.4503 71.4244C64.4503 79.7559 64.4503 87.7793 64.4503 96.1369C60.0197 94.1398 59.3689 90.7646 59.3256 87.1719C59.2512 81.0065 59.428 74.8361 59.2607 68.6743C59.1409 64.2629 61.0954 61.403 64.9737 59.6565C73.5417 55.7981 82.3313 54.245 91.689 56.4545C104.373 59.4494 106.243 61.6199 106.223 75.5208ZM22.5139 52.8453C30.2874 52.8453 38.061 52.8453 45.9535 52.8453C45.9535 47.2556 45.9535 42.2276 45.9535 36.8887C44.1239 37.0789 42.7265 37.2242 41.0127 37.4024C41.0127 40.8613 41.0127 43.9728 41.0127 47.3228C32.2685 47.3228 23.8836 47.3228 15.4061 47.3228C15.4061 39.4465 15.4061 31.9062 15.4061 23.9648C22.3397 23.9648 28.9358 23.9648 35.7559 23.9648C35.7559 22.1712 35.7559 20.7864 35.7559 19.208C27.1077 19.208 18.7175 19.208 10.2481 19.208C10.2481 30.4933 10.2481 41.5099 10.2481 52.8452C14.2525 52.8452 17.887 52.8452 22.5139 52.8453ZM93.7614 42.0324C94.3879 36.7121 95.9457 31.2953 95.4075 26.0955C94.7192 19.4455 88.1385 15.4575 81.4498 16.2187C74.5946 16.9989 70.0916 21.9453 69.9122 28.9236C69.8696 30.5825 69.8899 32.2435 69.9052 33.9033C69.9643 40.3152 72.5863 44.6311 77.6093 46.6063C83.3925 48.8804 88.6928 47.5414 93.7614 42.0324ZM85.6986 125.488C85.6986 116.079 85.6986 106.67 85.6986 97.2019C83.5382 97.2019 82.1012 97.2019 80.3725 97.2019C80.3725 111.147 80.3725 124.852 80.3725 138.695C82.1648 138.695 83.7125 138.695 85.6984 138.695C85.6984 134.41 85.6984 130.446 85.6986 125.488ZM41.9955 30.5055C44.0291 28.1433 46.0626 25.7811 48.3351 23.1414C46.9089 21.9477 45.7185 20.9515 44.3622 19.8164C38.75 26.1533 33.4103 32.1824 28.0041 38.2865C25.8124 36.2555 24.0246 34.5988 21.9342 32.6616C20.6869 34.0864 19.6805 35.2359 18.9733 36.0437C22.2508 39.5974 25.1551 42.7463 28.2962 46.1522C32.832 40.9561 37.1687 35.9881 41.9955 30.5055Z" fill="#FDFDFD"/>
<path d="M106.224 75.0278C106.243 61.6199 104.373 59.4494 91.6892 56.4545C82.3315 54.245 73.5419 55.7981 64.974 59.6565C61.0956 61.403 59.1411 64.2629 59.2609 68.6744C59.4282 74.8362 59.2514 81.0065 59.3258 87.1719C59.3691 90.7646 60.0199 94.1398 64.4505 96.137C64.4505 87.7793 64.4505 79.7559 64.4505 71.4244C66.4026 71.226 67.8163 71.0822 69.6036 70.9005C69.6036 93.6119 69.6036 116.006 69.6036 138.697C68.1171 138.697 66.7225 138.697 64.7261 138.697C64.7261 128.326 64.6229 118.048 64.7848 107.773C64.8379 104.405 64.4832 102.075 60.8767 100.333C56.2342 98.0901 54.0762 93.6554 54.049 88.4071C54.0143 81.741 54.2636 75.0652 53.9793 68.4111C53.7371 62.742 56.0246 58.5984 60.7852 56.0386C75.7009 48.0185 90.7093 48.0434 105.502 56.3854C109.699 58.7521 111.828 62.598 111.765 67.5855C111.682 74.2508 111.79 80.9183 111.73 87.584C111.68 93.0803 109.458 97.5197 104.463 100.003C101.62 101.416 100.974 103.341 101.015 106.271C101.161 116.593 101.072 126.918 101.072 137.453C99.509 137.985 98.0353 138.488 96.2056 139.111C96.2056 116.41 96.2056 94.0162 96.2056 71.2606C97.6978 71.1868 99.0957 71.1175 100.984 71.024C100.984 79.3946 100.984 87.4667 100.984 95.5388C101.588 95.7576 102.191 95.9763 102.795 96.1951C103.944 93.6366 105.748 91.163 106.093 88.5003C106.645 84.2398 106.229 79.8538 106.224 75.0278Z" fill="#30BFBA"/>
<path d="M29.0119 130.863C32.3753 130.905 35.7386 130.948 39.818 130.938C40.6491 130.591 40.764 130.297 40.8789 130.003C40.8789 127.033 40.8789 124.063 40.8789 120.808C42.8281 120.808 44.2313 120.808 46.0136 120.808C46.0136 125.819 46.0136 130.692 46.0136 135.887C34.1351 135.887 22.2532 135.887 10.105 135.887C10.105 124.787 10.105 113.871 10.105 102.633C18.6141 102.633 27.0219 102.633 35.7719 102.633C35.8429 104.171 35.9084 105.591 36.0081 107.751C29.4342 107.751 23.1754 107.751 16.1813 107.863C15.3725 108.313 15.299 108.651 15.2255 108.989C15.179 115.686 15.1325 122.382 15.112 129.793C15.424 130.615 15.7101 130.722 15.9961 130.83C19.3582 130.886 22.7202 130.943 26.8695 131.009C28.1085 130.967 28.5602 130.915 29.0119 130.863Z" fill="#30BFBA" fill-opacity="0.5"/>
<path d="M22.0177 52.8452C17.887 52.8452 14.2524 52.8452 10.248 52.8452C10.248 41.5098 10.248 30.4933 10.248 19.208C18.7174 19.208 27.1077 19.208 35.7558 19.208C35.7558 20.7863 35.7558 22.1712 35.7558 23.9648C28.9357 23.9648 22.3396 23.9648 15.406 23.9648C15.406 31.9062 15.406 39.4465 15.406 47.3228C23.8835 47.3228 32.2684 47.3228 41.0126 47.3228C41.0126 43.9728 41.0126 40.8613 41.0126 37.4024C42.7265 37.2242 44.1239 37.0789 45.9534 36.8887C45.9534 42.2276 45.9534 47.2556 45.9534 52.8453C38.0609 52.8453 30.2874 52.8453 22.0177 52.8452Z" fill="#30BFBA" fill-opacity="0.5"/>
<path d="M41.1233 79.0458C42.6113 79.0458 44.0993 79.0458 45.9821 79.0458C45.9821 83.9503 45.9821 88.8284 45.9821 94.0787C34.1846 94.0787 22.4335 94.0787 10.2681 94.0787C10.2681 83.3334 10.2681 72.4426 10.2681 61.1387C18.4731 61.1387 26.8621 61.1387 35.6796 61.1387C35.7865 62.3805 35.9067 63.7755 36.0911 65.9162C29.4613 65.9162 23.1888 65.9162 16.1994 66.0031C15.4002 66.3898 15.3177 66.6897 15.2352 66.9896C15.1828 73.6866 15.1303 80.3836 15.1057 87.8147C15.4223 88.6879 15.711 88.8268 15.9997 88.9657C19.3651 89.0391 22.7306 89.1125 26.9112 89.2035C28.5723 88.8577 29.4181 88.4943 30.6544 88.1985C34.0307 88.5034 37.0166 88.7409 40.2876 88.995C40.678 88.6792 40.7834 88.3468 40.9714 87.5818C41.0009 85.0998 40.948 83.0505 40.9817 80.6828C41.0866 79.9249 41.1049 79.4853 41.1233 79.0458Z" fill="#30BFBA" fill-opacity="0.5"/>
<path d="M93.5343 42.3363C88.6928 47.5412 83.3925 48.8803 77.6093 46.6062C72.5863 44.631 69.9643 40.3151 69.9052 33.9032C69.8899 32.2433 69.8696 30.5823 69.9122 28.9234C70.0916 21.9451 74.5946 16.9987 81.4498 16.2186C88.1385 15.4574 94.7192 19.4453 95.4075 26.0954C95.9457 31.2952 94.3879 36.7119 93.5343 42.3363ZM75.0862 28.9755C75.1133 31.1389 74.9502 33.3249 75.2041 35.4613C75.8847 41.1876 81.8341 44.2077 86.8308 41.3644C91.2628 38.8425 90.8093 34.4426 90.721 30.2868C90.6278 25.8988 89.1974 22.3673 84.1876 21.7834C79.3641 21.2212 76.08 23.0481 75.0862 28.9755Z" fill="#30BFBA"/>
<path d="M85.6986 125.985C85.6985 130.446 85.6985 134.41 85.6985 138.695C83.7126 138.695 82.165 138.695 80.3726 138.695C80.3726 124.852 80.3726 111.147 80.3726 97.2019C82.1013 97.2019 83.5383 97.2019 85.6987 97.2019C85.6987 106.67 85.6987 116.079 85.6986 125.985Z" fill="#30BFBA"/>
<path d="M41.7503 30.7628C37.1686 35.988 32.8319 40.956 28.2961 46.1522C25.1549 42.7463 22.2507 39.5974 18.9731 36.0437C19.6804 35.2359 20.6867 34.0863 21.934 32.6616C24.0244 34.5988 25.8122 36.2555 28.0039 38.2865C33.4101 32.1824 38.7498 26.1532 44.3621 19.8164C45.7183 20.9515 46.9087 21.9477 48.335 23.1413C46.0625 25.7811 44.0289 28.1433 41.7503 30.7628Z" fill="#30BFBA" fill-opacity="0.5"/>
<path d="M27.0242 128.941C24.3357 126.036 21.6473 123.132 18.2095 119.417C19.4486 118.464 20.669 117.526 22.0977 116.427C23.9964 118.117 25.7028 119.636 28.0139 121.693C33.3941 115.652 38.7317 109.659 44.3395 103.362C45.7169 104.479 46.916 105.452 48.3771 106.637C46.5337 108.757 44.9155 110.617 42.8914 112.927C41.9066 114.215 41.3277 115.054 40.7488 115.892C36.9391 120.09 33.1293 124.287 28.8397 128.797C27.9146 129.053 27.4694 128.997 27.0242 128.941Z" fill="#30BFBA" fill-opacity="0.5"/>
<path d="M26.964 87.1143C24.3004 84.2023 21.6368 81.2902 18.2192 77.5539C19.376 76.5513 20.5358 75.5459 21.8365 74.4186C24.1209 76.4899 25.9141 78.1158 28.006 80.0125C33.5246 73.8021 38.8761 67.7799 44.3455 61.625C45.6885 62.6503 46.8433 63.5319 48.4069 64.7255C44.9869 68.7215 41.6856 72.5788 37.9643 76.8722C36.9151 78.1669 36.286 79.0254 35.3903 80.059C33.1129 82.5775 31.102 84.921 28.7354 87.3219C27.9078 87.2909 27.4359 87.2026 26.964 87.1143Z" fill="#30BFBA" fill-opacity="0.5"/>
<path d="M35.6567 79.8839C36.2859 79.0254 36.915 78.1669 37.8382 77.1777C38.9205 77.6869 39.7088 78.3267 40.8099 79.0061C41.1045 79.4853 41.0862 79.9248 40.5972 80.6748C38.6366 80.6182 37.1467 80.251 35.6567 79.8839Z" fill="#FBFBFB"/>
<path d="M26.9746 87.4318C27.4362 87.2026 27.9081 87.2909 28.8856 87.5208C29.6456 87.8868 29.9365 88.043 30.264 88.1309C29.4181 88.4943 28.5723 88.8576 27.3634 89.1207C26.9952 88.5968 26.9901 88.1731 26.9746 87.4318Z" fill="#FBFBFB"/>
<path d="M41.106 115.883C41.3276 115.054 41.9064 114.215 42.7627 113.241C42.5144 114.029 41.9888 114.951 41.106 115.883Z" fill="#F2F2F2"/>
<path d="M27.0124 129.261C27.4692 128.997 27.9145 129.053 28.6966 129.102C29.0248 129.487 29.016 129.881 29.0095 130.568C28.5601 130.915 28.1083 130.967 27.3224 130.939C26.9924 130.433 26.9966 130.007 27.0124 129.261Z" fill="#F2F2F2"/>
<path d="M15.9213 88.7672C15.7106 88.8267 15.4219 88.6877 15.1738 88.2792C15.4837 88.1289 15.6933 88.3153 15.9213 88.7672Z" fill="#F2F2F2"/>
<path d="M15.4078 108.864C15.2989 108.651 15.3725 108.313 15.7232 107.971C15.9462 108.269 15.8095 108.526 15.4078 108.864Z" fill="#F2F2F2"/>
<path d="M15.4059 66.887C15.3176 66.6898 15.4001 66.3899 15.7402 66.1038C15.9224 66.3809 15.7821 66.6031 15.4059 66.887Z" fill="#F2F2F2"/>
<path d="M15.9091 130.657C15.7101 130.722 15.424 130.615 15.1797 130.258C15.4704 130.105 15.6706 130.263 15.9091 130.657Z" fill="#F2F2F2"/>
<path d="M40.6929 130.094C40.7639 130.297 40.649 130.591 40.2701 130.857C40.1054 130.562 40.2723 130.347 40.6929 130.094Z" fill="#F2F2F2"/>
<path d="M30.6542 88.1986C29.9363 88.0432 29.6454 87.887 29.2412 87.4637C31.1021 84.9212 33.113 82.5776 35.3904 80.0591C37.1469 80.2512 38.6368 80.6183 40.5108 80.9933C40.9478 83.0506 41.0008 85.0999 40.7744 87.6924C40.2532 88.4317 40.089 88.6793 40.0024 88.9785C37.0165 88.741 34.0305 88.5035 30.6542 88.1986Z" fill="#FDFDFD"/>
<path d="M40.2874 88.9951C40.089 88.6793 40.2532 88.4317 40.6919 88.125C40.7833 88.3469 40.6779 88.6793 40.2874 88.9951Z" fill="#FBFBFB"/>
<path d="M75.1161 28.551C76.0801 23.0481 79.3642 21.2213 84.1877 21.7835C89.1974 22.3674 90.6279 25.8989 90.7211 30.2868C90.8094 34.4426 91.2629 38.8425 86.8309 41.3645C81.8341 44.2078 75.8848 41.1876 75.2042 35.4614C74.9503 33.325 75.1133 31.139 75.1161 28.551Z" fill="#F9F9F9"/>
</g>
<defs>
<clipPath id="clip0_205_4">
<rect width="120" height="147" fill="white"/>
</clipPath>
</defs>
</svg>
