<svg width="225" height="225" viewBox="0 0 225 225" fill="none" xmlns="http://www.w3.org/2000/svg">
<path opacity="0.3" d="M121.396 37.3525H56.0291V186.764H168.087V84.0435H121.396V37.3525ZM149.411 168.087H74.7054V149.411H149.411V168.087ZM149.411 112.058V130.734H74.7054V112.058H149.411Z" fill="#31CECA"/>
<path d="M74.7055 149.411H149.411V168.087H74.7055V149.411ZM74.7055 112.058H149.411V130.735H74.7055V112.058ZM130.735 18.6763H56.0292C45.7572 18.6763 37.3528 27.0806 37.3528 37.3526V186.764C37.3528 197.036 45.6638 205.44 55.9358 205.44H168.087C178.359 205.44 186.764 197.036 186.764 186.764V74.7054L130.735 18.6763ZM168.087 186.764H56.0292V37.3526H121.396V84.0436H168.087V186.764Z" fill="#31CECA"/>
</svg>
