<svg width="216" height="189" viewBox="0 0 216 189" fill="none" xmlns="http://www.w3.org/2000/svg">
<g clip-path="url(#clip0_62_51)">
<path d="M149.362 189.237C99.5744 189.237 49.9021 189.237 0.229736 189.237C0.229736 126.237 0.229736 63.2366 0.229736 0.236572C72.2297 0.236572 144.23 0.236572 216.23 0.236572C216.23 63.2366 216.23 126.237 216.23 189.237C193.979 189.237 171.728 189.237 149.362 189.237ZM39.004 52.5249C39.004 52.5249 38.9796 52.5749 38.992 52.7424C40.6695 56.0103 42.9839 58.7251 45.7728 61.0305C48.4524 63.2454 51.5359 64.6416 54.7529 65.9469C54.9071 70.9354 55.0612 75.9239 54.9921 80.9291C49.9026 80.9309 44.8106 80.8369 39.7247 80.9783C37.4587 81.0412 35.0876 81.2236 32.9687 81.9683C27.317 83.9547 23.4594 87.6987 22.9551 94.2589C22.7503 96.9239 22.4363 99.5802 22.1567 102.239C21.6969 106.612 21.2218 110.983 20.7583 115.355C20.4108 118.634 20.0482 121.911 19.7359 125.194C19.476 127.926 19.2794 130.664 19.0011 133.583C18.6467 136.987 18.2226 140.386 17.9611 143.798C17.772 146.265 18.4544 148.575 19.8267 150.611C22.8662 155.119 27.2625 156.893 32.4013 156.895C85.1662 156.916 137.931 156.916 190.696 156.872C192.505 156.871 194.371 156.546 196.112 156.024C201.25 154.482 204.83 150.147 205.106 144.983C205.231 142.649 204.806 140.283 204.675 137.798C204.624 137.675 204.574 137.553 204.539 137.218C204.48 136.591 204.42 135.963 204.418 135.204C204.37 135.081 204.321 134.957 204.294 134.649C204.225 134.227 204.156 133.805 204.146 133.174C203.896 130.435 203.659 127.695 203.393 124.957C203.075 121.671 202.722 118.389 202.403 115.103C202.069 111.66 201.777 108.213 201.432 104.771C201.094 101.405 200.618 98.0515 200.375 94.6793C200.067 90.4118 198.385 86.984 195.031 84.4397C191.73 81.9365 188.008 80.922 183.938 80.9239C146.177 80.9417 108.417 80.9345 70.6567 80.9329C70.0826 80.9329 69.5085 80.9122 68.9103 80.6803C68.9926 75.6072 69.075 70.5341 69.2783 65.3573C69.447 65.2675 69.6083 65.1565 69.7855 65.0909C85.2385 59.3628 91.5846 40.9811 83.0031 26.5534C81.8933 24.6875 80.2409 23.1635 78.8292 21.5074C78.8292 21.5074 78.8564 21.5123 78.831 21.3917C78.8102 21.3565 78.7894 21.3214 78.7436 21.1326C77.4004 20.0951 76.1284 18.9382 74.703 18.0386C61.2627 9.55596 43.7895 15.4187 37.8718 30.4688C34.9827 37.8165 35.3097 45.1322 38.8335 52.3983C38.907 52.4479 38.9804 52.4975 39.004 52.5249Z" fill="white"/>
<path d="M19.0547 133.4C19.2793 130.664 19.4759 127.926 19.7359 125.194C20.0482 121.911 20.4108 118.634 20.7583 115.355C21.2217 110.982 21.6968 106.611 22.1567 102.239C22.4363 99.5801 22.7503 96.9238 22.9551 94.2588C23.4593 87.6987 27.3169 83.9546 32.9686 81.9682C35.0876 81.2235 37.4587 81.0412 39.7247 80.9782C44.8105 80.8369 49.9025 80.9309 55.1648 80.9936C55.4393 84.4421 55.5272 87.8267 55.6535 91.2098C55.6819 91.9692 55.4819 92.3253 54.6906 92.4739C52.4412 92.8964 50.1726 93.2893 47.9801 93.9388C42.9096 95.4409 38.2996 97.7907 34.7465 101.995C31.8261 105.45 31.1731 110.142 33.1912 114.196C34.8634 117.556 37.6117 119.792 40.7232 121.583C47.379 125.415 54.6556 126.681 62.1551 126.699C66.5898 126.709 71.0073 126.171 75.2813 124.845C80.7392 123.152 85.7945 120.767 89.4495 115.977C92.1335 112.46 92.43 107.495 90.1313 103.699C88.3366 100.736 85.8004 98.6354 82.89 96.9655C78.7655 94.599 74.3063 93.2504 69.6621 92.5308C68.8486 92.4048 68.6691 92.0452 68.691 91.2919C68.7914 87.8289 68.8565 84.3648 68.9343 80.9011C69.5084 80.9122 70.0825 80.9328 70.6566 80.9329C108.417 80.9344 146.177 80.9417 183.938 80.9238C188.008 80.9219 191.73 81.9364 195.03 84.4396C198.385 86.9839 200.067 90.4117 200.374 94.6792C200.618 98.0515 201.094 101.405 201.432 104.771C201.777 108.213 202.069 111.66 202.403 115.103C202.722 118.389 203.075 121.671 203.393 124.957C203.659 127.695 203.896 130.435 204.048 133.343C203.72 134.497 203.627 135.543 203.236 136.455C200.771 142.211 196.119 144.718 190.331 144.726C137.837 144.8 85.3426 144.771 32.8482 144.76C31.9379 144.759 31.0122 144.687 30.1199 144.51C25.4008 143.569 21.8046 141.067 19.8647 136.41C19.4696 135.462 19.3183 134.406 19.0547 133.4ZM115.446 94.9781C115.415 95.3266 115.383 95.6752 115.189 96.0473C112.445 96.8996 111.911 99.8886 114.184 101.526C114.956 102.083 115.82 102.542 116.698 102.901C120.475 104.444 124.451 104.528 128.413 104.266C131.064 104.091 133.676 103.541 136.009 102.008C137.089 101.299 137.96 100.508 137.839 99.1462C137.704 97.6282 136.689 96.7446 135.321 96.057C135.29 95.7244 135.258 95.3919 135.278 94.8716C135.383 93.1238 134.746 92.1972 132.659 91.3804C128.071 89.5845 123.37 89.5004 118.731 90.9739C115.992 91.8438 115.22 92.8522 115.446 94.9781ZM157.184 119.159C157.16 119.416 157.137 119.673 156.952 119.938C156.311 120.406 155.556 120.77 155.053 121.363C154.061 122.532 154.191 124.045 155.392 125.018C156.276 125.735 157.279 126.372 158.324 126.792C162.423 128.438 166.721 128.768 171.018 128.126C173.239 127.794 175.428 126.956 177.515 126.058C178.662 125.565 179.834 124.542 179.609 122.993C179.406 121.599 178.519 120.597 177.061 120.135C177.027 119.67 176.993 119.204 176.987 118.543C177.103 117.43 176.6 116.639 175.717 116.093C175.098 115.709 174.462 115.321 173.787 115.071C170.512 113.857 167.109 113.745 163.715 114.181C162.115 114.387 160.528 114.96 159.019 115.581C157.625 116.155 156.866 117.304 157.184 119.159ZM146.697 92.8933C146.677 93.2233 146.658 93.5533 146.471 93.9049C146.086 94.1493 145.652 94.3388 145.323 94.647C143.464 96.3872 143.538 98.187 145.695 99.5411C147.011 100.367 148.491 101.017 149.981 101.432C153.81 102.498 157.727 102.581 161.629 101.91C163.805 101.536 165.969 101.016 167.786 99.5706C168.735 98.8163 169.397 97.8447 169.069 96.6367C168.736 95.409 167.894 94.473 166.569 93.9376C166.546 93.6078 166.523 93.278 166.545 92.7568C166.812 90.892 165.646 90.0431 164.251 89.4049C160.755 87.8058 157.065 87.641 153.361 88.142C151.688 88.3682 150.032 88.9524 148.451 89.5895C147.182 90.1006 146.506 91.1989 146.697 92.8933ZM190.709 102.245C190.591 100.75 189.629 99.8558 188.416 99.4343C186.658 98.8239 184.838 98.2795 183.004 98.0542C179.639 97.6407 176.285 97.8574 173.1 99.2385C171.316 100.012 170.845 100.793 170.83 102.778C170.794 103.129 170.758 103.48 170.562 103.856C170.263 104.024 169.932 104.15 169.671 104.367C167.536 106.139 167.667 108.363 170.082 109.742C171.303 110.439 172.629 111.036 173.979 111.381C177.35 112.241 180.804 112.673 184.253 112.074C186.443 111.694 188.628 111.09 190.706 110.286C192.034 109.773 193.369 108.768 193.211 106.998C193.08 105.531 192.125 104.542 190.716 103.864C190.708 103.384 190.7 102.905 190.709 102.245ZM133.037 108.772C133.021 109.181 133.004 109.589 132.826 109.998C129.883 111.243 129.465 113.469 131.895 115.512C133.812 117.123 136.216 117.761 138.584 117.967C141.601 118.23 144.668 118.214 147.689 117.976C150.029 117.792 152.356 117.13 154.236 115.491C155.034 114.795 155.8 113.943 155.476 112.768C155.115 111.458 154.22 110.567 152.844 110.041C152.829 109.708 152.814 109.374 152.824 108.838C153.139 107.296 152.445 106.303 150.258 105.319C147.275 103.978 144.089 103.832 140.919 104.115C139.082 104.279 137.236 104.731 135.474 105.313C133.604 105.93 133.014 106.933 133.037 108.772ZM101.796 110.898C101.776 111.299 101.756 111.701 101.574 112.113C101.092 112.413 100.55 112.645 100.138 113.025C98.7049 114.347 98.6073 115.786 100.072 117.036C101.131 117.939 102.394 118.687 103.683 119.189C107.215 120.563 110.942 120.59 114.642 120.362C117.31 120.198 119.932 119.565 122.26 118.129C124.573 116.702 124.899 114.87 123.041 113.103C122.666 112.746 122.109 112.593 121.6 112.148C121.587 111.74 121.575 111.332 121.581 110.729C121.737 108.771 120.351 108.047 118.968 107.441C115.447 105.9 111.724 105.868 108.03 106.337C106.369 106.549 104.751 107.315 103.175 107.984C102.081 108.448 101.606 109.44 101.796 110.898Z" fill="#5FC5C2"/>
<path d="M19.028 133.491C19.3185 134.406 19.4697 135.462 19.8648 136.41C21.8048 141.067 25.401 143.569 30.12 144.51C31.0124 144.687 31.938 144.759 32.8483 144.76C85.3428 144.771 137.837 144.8 190.332 144.726C196.119 144.718 200.771 142.211 203.237 136.455C203.627 135.543 203.72 134.497 204.019 133.448C204.156 133.805 204.225 134.227 204.229 134.766C204.23 135.034 204.295 135.184 204.361 135.335C204.42 135.963 204.48 136.59 204.475 137.351C204.484 137.633 204.557 137.783 204.63 137.932C204.806 140.283 205.231 142.649 205.106 144.983C204.83 150.147 201.251 154.482 196.112 156.024C194.371 156.546 192.505 156.871 190.696 156.872C137.931 156.916 85.1664 156.916 32.4014 156.895C27.2626 156.893 22.8663 155.119 19.8268 150.61C18.4545 148.575 17.7721 146.265 17.9612 143.798C18.2227 140.386 18.6468 136.987 19.028 133.491Z" fill="#478988"/>
<path d="M38.8122 52.2451C35.3097 45.1322 34.9827 37.8165 37.8719 30.4688C43.7895 15.4188 61.2628 9.55599 74.7031 18.0386C76.1284 18.9382 77.4005 20.0951 78.7265 21.2437C78.7583 21.4073 78.8074 21.4598 78.8565 21.5124C78.8565 21.5124 78.8292 21.5074 78.8203 21.5923C78.9765 22.277 79.1601 22.8722 79.3034 23.4775C79.8347 25.7211 80.602 27.9426 80.8215 30.2194C81.2216 34.3692 80.6469 38.44 79.0904 42.3459C76.5643 48.6849 72.2398 53.2707 66.2866 56.1977C62.4437 58.0872 58.3573 58.7497 54.0676 58.4771C49.1467 58.1644 44.7971 56.4624 40.8286 53.5389C40.2733 53.1298 39.5989 52.892 38.9796 52.5749C38.9796 52.5749 39.004 52.5249 39.0048 52.4741C38.9411 52.3639 38.8767 52.3045 38.8122 52.2451ZM52.6591 26.3632C49.34 28.2323 47.421 30.9721 47.546 35.0072C47.6391 38.0128 49.906 40.3546 52.8323 40.4324C56.4429 40.5285 60.1234 37.4336 61.1007 33.4854C61.4694 31.9959 61.4767 30.5195 60.8816 29.0922C59.5722 25.9519 56.4625 24.8788 52.6591 26.3632Z" fill="#FF3F3F"/>
<path d="M68.9223 80.7908C68.8565 84.3649 68.7914 87.829 68.691 91.292C68.6691 92.0453 68.8486 92.4049 69.6621 92.5309C74.3063 93.2505 78.7655 94.5991 82.89 96.9656C85.8004 98.6355 88.3366 100.736 90.1313 103.699C92.43 107.495 92.1335 112.46 89.4495 115.977C85.7945 120.767 80.7392 123.152 75.2813 124.845C71.0073 126.171 66.5898 126.709 62.1551 126.699C54.6555 126.681 47.379 125.415 40.7232 121.583C37.6117 119.792 34.8634 117.556 33.1912 114.196C31.1731 110.142 31.8261 105.451 34.7465 101.995C38.2996 97.7908 42.9096 95.441 47.9801 93.9389C50.1726 93.2894 52.4411 92.8965 54.6906 92.474C55.4819 92.3254 55.6819 91.9693 55.6535 91.2099C55.5271 87.8268 55.4393 84.4422 55.2764 80.9853C55.0611 75.9239 54.907 70.9354 54.8454 65.8604C55.9419 65.9815 56.9459 66.1891 57.9348 66.5113C57.9852 67.721 58.0748 68.8151 58.1118 69.9111C58.2773 74.8171 58.428 79.7236 58.5837 84.63C58.7345 89.3789 58.8846 94.1278 59.0356 98.8767C59.0718 100.018 59.5343 100.508 60.516 100.541C61.66 100.578 61.8466 99.8167 61.8232 98.9148C61.7675 96.7563 61.6675 94.5991 61.6048 92.4407C61.4349 86.5901 61.279 80.7389 61.1095 74.8883C61.0299 72.1392 60.932 69.3907 60.9364 66.6171C63.7394 66.2152 66.4483 65.8381 69.1572 65.4611C69.0749 70.5341 68.9926 75.6072 68.9223 80.7908ZM77.5183 116.355C79.5143 115.327 81.3724 114.093 82.8494 112.346C84.8163 110.021 85.9939 107.412 85.1814 104.249C84.5274 101.702 82.882 99.8469 80.972 98.2076C78.5796 96.1544 75.7471 94.9924 72.8284 94.0465C71.5466 93.631 70.2013 93.4231 68.8087 93.1034C68.7565 93.5974 68.7094 93.8631 68.7031 94.1299C68.625 97.4324 68.5753 100.736 68.4546 104.037C68.4367 104.525 68.2217 105.207 67.8713 105.443C66.8909 106.103 65.843 106.764 64.7295 107.087C61.8097 107.935 59.1456 107.087 56.7252 105.348C56.4109 105.123 56.1194 104.623 56.1023 104.237C55.9721 101.292 55.8945 98.3432 55.8369 95.3951C55.7898 92.9837 55.8121 92.9833 53.5933 93.4137C53.5559 93.421 53.5162 93.4153 53.4789 93.423C49.5432 94.2366 45.8394 95.6437 42.6669 98.2323C40.7625 99.7862 39.1519 101.634 38.6007 104.192C37.6888 108.425 39.5563 111.509 42.5836 114.035C44.8022 115.886 47.365 117.099 50.067 118.037C54.0903 119.433 58.2564 119.81 62.4521 119.886C64.0779 119.915 65.712 119.633 67.3377 119.45C70.8505 119.052 74.2048 118.081 77.5183 116.355Z" fill="#318381"/>
<path d="M69.2178 65.4092C66.4484 65.8381 63.7395 66.2152 60.8533 66.5875C59.7673 66.5208 58.8586 66.4587 57.9499 66.3966C56.946 66.189 55.942 65.9815 54.8503 65.7623C51.5359 64.6415 48.4524 63.2454 45.7729 61.0305C42.9839 58.7251 40.6695 56.0103 38.9858 52.6586C39.5989 52.892 40.2733 53.1298 40.8286 53.5388C44.7971 56.4623 49.1467 58.1643 54.0676 58.477C58.3573 58.7496 62.4437 58.0871 66.2866 56.1977C72.2398 53.2707 76.5643 48.6849 79.0904 42.3458C80.6469 38.44 81.2216 34.3691 80.8215 30.2193C80.602 27.9426 79.8347 25.7211 79.3034 23.4774C79.1601 22.8721 78.9765 22.277 78.8256 21.5791C80.2409 23.1635 81.8933 24.6875 83.0032 26.5534C91.5846 40.9811 85.2385 59.3628 69.7855 65.0908C69.6084 65.1565 69.447 65.2675 69.2178 65.4092Z" fill="#BE1D26"/>
<path d="M204.39 135.27C204.296 135.184 204.23 135.034 204.219 134.858C204.322 134.957 204.37 135.081 204.39 135.27Z" fill="#5FC5C2"/>
<path d="M204.653 137.865C204.558 137.783 204.484 137.633 204.468 137.457C204.575 137.553 204.625 137.675 204.653 137.865Z" fill="#5FC5C2"/>
<path d="M38.823 52.3216C38.877 52.3044 38.9416 52.3638 39.0306 52.4852C38.9811 52.4975 38.9074 52.4479 38.823 52.3216Z" fill="#BE1D26"/>
<path d="M78.8432 21.452C78.8071 21.4598 78.7583 21.4072 78.739 21.3204C78.7892 21.3214 78.8099 21.3565 78.8432 21.452Z" fill="#BE1D26"/>
<path d="M177.064 120.314C178.519 120.597 179.406 121.599 179.609 122.993C179.834 124.542 178.662 125.565 177.515 126.058C175.428 126.956 173.239 127.794 171.018 128.126C166.721 128.768 162.423 128.438 158.324 126.792C157.279 126.372 156.277 125.735 155.392 125.018C154.192 124.045 154.061 122.532 155.053 121.363C155.556 120.771 156.311 120.406 157.055 120.021C157.358 121.468 158.383 122.122 159.437 122.542C164.483 124.553 169.587 124.638 174.68 122.707C175.782 122.289 176.682 121.546 177.064 120.314Z" fill="#353432"/>
<path d="M135.335 96.256C136.689 96.7447 137.704 97.6283 137.839 99.1463C137.96 100.508 137.089 101.299 136.009 102.008C133.676 103.541 131.064 104.091 128.413 104.266C124.451 104.529 120.475 104.444 116.698 102.901C115.82 102.543 114.956 102.083 114.184 101.526C111.911 99.8887 112.445 96.8997 115.29 96.1204C115.599 97.4409 116.539 98.0163 117.51 98.4545C122.452 100.682 127.501 100.596 132.549 98.9375C133.791 98.529 135.02 97.8224 135.335 96.256Z" fill="#323434"/>
<path d="M152.883 110.236C154.22 110.567 155.115 111.458 155.476 112.768C155.8 113.943 155.034 114.795 154.236 115.491C152.356 117.13 150.029 117.792 147.689 117.976C144.669 118.214 141.601 118.23 138.584 117.967C136.216 117.761 133.812 117.123 131.896 115.512C129.465 113.469 129.883 111.243 132.928 110.084C133.509 110.793 133.87 111.621 134.489 112.007C138.067 114.235 142.036 114.285 146.021 113.865C147.515 113.707 149.002 113.263 150.434 112.77C151.598 112.37 152.67 111.695 152.883 110.236Z" fill="#323434"/>
<path d="M166.597 94.1337C167.894 94.473 168.736 95.409 169.069 96.6367C169.397 97.8447 168.735 98.8163 167.786 99.5706C165.969 101.016 163.805 101.536 161.629 101.91C157.727 102.581 153.81 102.498 149.981 101.432C148.492 101.017 147.012 100.367 145.695 99.5411C143.538 98.187 143.464 96.3872 145.323 94.647C145.652 94.3388 146.086 94.1493 146.574 93.9801C146.854 95.4348 147.952 95.9483 148.952 96.4484C151.55 97.7487 154.372 98.065 157.206 98.0142C159.801 97.9676 162.436 97.7557 164.727 96.3388C165.5 95.8606 165.982 94.8831 166.597 94.1337Z" fill="#353432"/>
<path d="M190.736 104.068C192.125 104.542 193.08 105.531 193.211 106.998C193.369 108.768 192.034 109.773 190.706 110.286C188.628 111.09 186.443 111.694 184.253 112.074C180.804 112.673 177.35 112.241 173.979 111.381C172.629 111.036 171.303 110.439 170.082 109.742C167.667 108.363 167.536 106.139 169.671 104.367C169.932 104.15 170.263 104.024 170.662 103.927C171.045 105.103 171.731 105.831 172.735 106.29C177.631 108.526 182.629 108.556 187.661 106.913C189.035 106.464 190.388 105.788 190.736 104.068Z" fill="#343233"/>
<path d="M121.635 112.347C122.109 112.593 122.666 112.746 123.041 113.103C124.899 114.87 124.573 116.702 122.26 118.129C119.932 119.565 117.31 120.198 114.642 120.362C110.942 120.59 107.215 120.563 103.683 119.189C102.394 118.687 101.131 117.939 100.072 117.036C98.6074 115.786 98.705 114.347 100.138 113.026C100.551 112.645 101.092 112.413 101.675 112.196C102.149 112.848 102.403 113.609 102.919 113.944C103.835 114.54 104.877 114.993 105.923 115.305C110.532 116.68 115.111 116.612 119.584 114.701C120.587 114.272 121.409 113.553 121.635 112.347Z" fill="#343233"/>
<path d="M101.828 110.698C101.606 109.44 102.082 108.448 103.175 107.984C104.751 107.315 106.369 106.549 108.031 106.337C111.724 105.868 115.447 105.9 118.968 107.441C120.352 108.047 121.737 108.771 121.503 110.866C120.435 111.692 119.532 112.624 118.443 113.024C114.879 114.333 111.178 114.332 107.496 113.621C105.366 113.21 103.23 112.671 101.828 110.698ZM109.672 112.616C108.432 112.146 107.134 111.79 105.968 111.171C104.943 110.627 104.914 109.754 105.858 109.026C106.539 108.502 107.377 108.136 108.198 107.88C109.167 107.577 110.194 107.47 111.195 107.278C110.385 107.15 109.564 107.023 108.797 107.177C107.206 107.496 105.563 107.77 104.092 108.424C102.547 109.111 102.559 110.592 103.91 111.531C105.488 112.627 108.762 113.299 110.716 112.924C110.423 112.83 110.137 112.739 109.672 112.616Z" fill="#FC3F3F"/>
<path d="M133.065 108.569C133.014 106.933 133.604 105.93 135.474 105.313C137.236 104.731 139.082 104.279 140.919 104.115C144.089 103.832 147.275 103.978 150.258 105.32C152.445 106.303 153.14 107.296 152.743 108.976C151.419 110.434 149.826 111.031 148.139 111.424C145.166 112.117 142.162 112.068 139.179 111.611C136.867 111.256 134.653 110.538 133.065 108.569ZM139.448 105.029C138.254 105.41 136.994 105.65 135.881 106.203C134.198 107.039 134.16 108.631 135.825 109.469C137.032 110.076 138.4 110.376 139.724 110.688C140.554 110.884 141.435 110.848 142.294 110.916C141.136 110.368 139.957 110.108 138.819 109.721C137.907 109.41 136.926 108.972 136.965 107.764C137.002 106.61 138.043 106.364 138.865 105.985C139.141 105.858 139.444 105.785 139.742 105.72C140.705 105.509 141.671 105.314 142.635 105.113C142.634 105.082 142.633 105.052 142.631 105.021C141.641 105.021 140.651 105.021 139.448 105.029Z" fill="#2CAADF"/>
<path d="M170.936 102.641C170.845 100.793 171.316 100.012 173.1 99.2385C176.285 97.8573 179.639 97.6407 183.004 98.0541C184.838 98.2795 186.658 98.8239 188.416 99.4343C189.629 99.8558 190.591 100.75 190.644 102.384C189.908 103.72 188.834 104.368 187.614 104.792C184.876 105.743 182.08 106.054 179.19 105.762C176.158 105.455 173.19 105.081 170.936 102.641ZM174.293 103.88C176.019 104.612 177.798 104.953 179.673 104.63C179.374 104.466 179.042 104.439 178.74 104.327C177.605 103.909 176.407 103.595 175.371 102.991C174.273 102.35 174.377 101.289 175.458 100.569C175.745 100.378 176.053 100.194 176.376 100.092C177.498 99.7375 178.63 99.4202 179.759 99.0887C177.271 98.7154 174.946 99.1722 172.868 100.632C172.1 101.172 172.116 102.214 172.824 102.875C173.214 103.239 173.692 103.503 174.293 103.88Z" fill="#FC3F3F"/>
<path d="M146.774 92.7101C146.507 91.1989 147.182 90.1006 148.451 89.5895C150.033 88.9524 151.689 88.3682 153.361 88.142C157.065 87.641 160.755 87.8058 164.251 89.4049C165.646 90.0431 166.812 90.892 166.451 92.8695C165.13 94.3145 163.591 95.0647 161.858 95.2959C159.981 95.5464 158.087 95.7482 156.197 95.7803C152.745 95.8391 149.457 95.2214 146.774 92.7101ZM154.77 94.3875C153.725 94.0284 152.639 93.7584 151.653 93.2718C151.176 93.0363 150.575 92.3792 150.595 91.9406C150.62 91.4073 151.135 90.6783 151.626 90.4342C152.604 89.9477 153.709 89.7297 154.764 89.4117C155.044 89.3273 155.336 89.2825 155.622 89.2196C153.644 88.8197 151.762 89.0864 149.981 89.8526C149.113 90.2259 147.998 90.7962 148.295 91.9215C148.495 92.6808 149.343 93.4663 150.089 93.825C152.014 94.7501 154.102 95.0249 156.534 94.7593C155.825 94.5969 155.392 94.4979 154.77 94.3875Z" fill="#F6D326"/>
<path d="M157.232 118.97C156.866 117.304 157.625 116.155 159.019 115.582C160.528 114.96 162.115 114.387 163.716 114.182C167.109 113.745 170.512 113.857 173.787 115.071C174.462 115.321 175.098 115.709 175.717 116.093C176.6 116.639 177.103 117.43 176.908 118.684C176.131 119.409 175.516 120.191 174.722 120.542C170.739 122.307 166.577 122.097 162.417 121.431C160.486 121.122 158.787 120.179 157.232 118.97ZM158.783 118.832C160.399 120.358 164.003 121.24 166.359 120.764C165.121 120.411 163.713 120.081 162.357 119.595C161.57 119.313 160.803 118.814 160.835 117.757C160.866 116.741 161.627 116.369 162.407 116.13C163.78 115.71 165.174 115.365 166.566 114.987C164.064 114.863 161.596 114.965 159.341 116.343C158.347 116.951 158.178 117.567 158.783 118.832Z" fill="#F6D326"/>
<path d="M115.554 94.8463C115.22 92.8522 115.992 91.8439 118.731 90.9739C123.37 89.5004 128.071 89.5845 132.659 91.3804C134.746 92.1972 135.383 93.1239 135.185 94.988C133.664 96.4151 132.05 97.3214 130.111 97.4878C128.218 97.6503 126.32 97.9393 124.43 97.8974C121.196 97.8256 118.045 97.3012 115.554 94.8463ZM117.806 92.5267C116.659 93.6747 116.643 94.5792 117.989 95.3355C119.105 95.9624 120.361 96.3957 121.606 96.6896C122.72 96.9527 123.902 96.9084 125.055 96.9997C125.061 96.8703 125.068 96.7408 125.074 96.6113C124.781 96.5829 124.487 96.5618 124.195 96.525C122.627 96.3274 121.107 95.984 119.854 94.9018C119.108 94.2581 119.046 93.5253 119.853 92.9473C120.528 92.4633 121.292 92.0529 122.075 91.7986C123.047 91.4824 124.08 91.3603 125.086 91.1543C125.066 91.0591 125.047 90.9638 125.027 90.8685C122.585 90.9405 120.147 91.0348 117.806 92.5267Z" fill="#2CAADF"/>
<path d="M170.884 102.71C173.19 105.081 176.158 105.455 179.19 105.762C182.08 106.054 184.876 105.743 187.614 104.792C188.834 104.368 189.908 103.72 190.635 102.474C190.7 102.905 190.708 103.384 190.726 103.966C190.388 105.788 189.035 106.464 187.661 106.913C182.629 108.556 177.631 108.526 172.735 106.29C171.731 105.832 171.045 105.103 170.742 103.914C170.758 103.48 170.794 103.129 170.884 102.71Z" fill="#B91D26"/>
<path d="M146.736 92.8018C149.457 95.2214 152.745 95.8391 156.197 95.7804C158.087 95.7482 159.981 95.5464 161.858 95.2959C163.591 95.0647 165.13 94.3146 166.428 92.9653C166.523 93.2781 166.546 93.6079 166.583 94.0357C165.982 94.8831 165.5 95.8606 164.727 96.3389C162.436 97.7558 159.801 97.9676 157.206 98.0142C154.371 98.065 151.55 97.7488 148.951 96.4484C147.952 95.9484 146.854 95.4349 146.657 93.9693C146.658 93.5533 146.678 93.2234 146.736 92.8018Z" fill="#F0B224"/>
<path d="M157.208 119.065C158.787 120.179 160.486 121.122 162.417 121.431C166.577 122.097 170.739 122.307 174.722 120.542C175.516 120.191 176.131 119.409 176.893 118.782C176.993 119.204 177.027 119.67 177.063 120.224C176.682 121.546 175.782 122.289 174.68 122.706C169.587 124.638 164.483 124.553 159.436 122.542C158.382 122.121 157.358 121.468 157.135 120.017C157.137 119.673 157.16 119.416 157.208 119.065Z" fill="#F2B324"/>
<path d="M115.5 94.9122C118.045 97.3012 121.196 97.8257 124.43 97.8974C126.32 97.9394 128.218 97.6504 130.111 97.4879C132.05 97.3214 133.665 96.4151 135.159 95.0819C135.258 95.3919 135.29 95.7245 135.328 96.1565C135.02 97.8223 133.792 98.529 132.549 98.9374C127.501 100.596 122.452 100.682 117.511 98.4544C116.539 98.0163 115.599 97.4409 115.372 96.1085C115.384 95.6752 115.415 95.3267 115.5 94.9122Z" fill="#1F90B7"/>
<path d="M101.812 110.798C103.23 112.671 105.366 113.21 107.496 113.621C111.178 114.332 114.878 114.333 118.443 113.024C119.531 112.624 120.435 111.692 121.493 110.964C121.575 111.332 121.587 111.74 121.618 112.247C121.409 113.553 120.586 114.272 119.583 114.701C115.111 116.612 110.532 116.68 105.923 115.305C104.877 114.993 103.835 114.54 102.919 113.944C102.403 113.609 102.149 112.848 101.756 112.191C101.756 111.701 101.776 111.3 101.812 110.798Z" fill="#BA1C25"/>
<path d="M133.051 108.671C134.653 110.538 136.867 111.256 139.179 111.611C142.162 112.068 145.166 112.117 148.139 111.424C149.826 111.031 151.419 110.434 152.731 109.077C152.814 109.374 152.829 109.708 152.864 110.138C152.67 111.695 151.598 112.37 150.434 112.77C149.002 113.263 147.515 113.707 146.021 113.865C142.036 114.285 138.067 114.235 134.489 112.007C133.87 111.621 133.509 110.793 133.008 110.083C133.004 109.589 133.021 109.181 133.051 108.671Z" fill="#1E90B8"/>
<path d="M52.74 26.3243C56.4625 24.8787 59.5722 25.9518 60.8816 29.0921C61.4768 30.5194 61.4694 31.9958 61.1007 33.4853C60.1234 37.4335 56.4429 40.5284 52.8324 40.4323C49.906 40.3545 47.6391 38.0127 47.546 35.0071C47.4211 30.972 49.34 28.2322 52.74 26.3243Z" fill="#FF9D95"/>
<path d="M77.4399 116.39C74.2048 118.081 70.8506 119.052 67.3377 119.45C65.7121 119.633 64.078 119.915 62.4522 119.885C58.2565 119.81 54.0903 119.433 50.067 118.036C47.365 117.099 44.8023 115.886 42.5836 114.035C39.5563 111.508 37.6888 108.425 38.6008 104.192C39.1519 101.634 40.7625 99.7862 42.667 98.2323C45.8395 95.6437 49.5432 94.2366 53.479 93.423C53.5162 93.4153 53.556 93.421 53.5934 93.4137C55.8122 92.9833 55.7899 92.9836 55.837 95.395C55.8945 98.3432 55.9722 101.291 56.1024 104.237C56.1195 104.623 56.411 105.123 56.7253 105.348C59.1457 107.087 61.8098 107.935 64.7295 107.087C65.8431 106.764 66.891 106.103 67.8714 105.443C68.2218 105.207 68.4368 104.525 68.4547 104.037C68.5753 100.736 68.625 97.4323 68.7031 94.1298C68.7094 93.8631 68.7565 93.5973 68.8087 93.1034C70.2013 93.423 71.5466 93.631 72.8285 94.0464C75.7471 94.9924 78.5797 96.1544 80.972 98.2076C82.8821 99.8469 84.5275 101.702 85.1815 104.249C85.9939 107.412 84.8164 110.021 82.8495 112.346C81.3725 114.093 79.5144 115.327 77.4399 116.39Z" fill="#315A58"/>
<path d="M57.9351 66.5112C58.8587 66.4586 59.7675 66.5207 60.7594 66.6123C60.9322 69.3906 61.0301 72.1391 61.1098 74.8882C61.2792 80.7389 61.4351 86.59 61.605 92.4406C61.6677 94.599 61.7677 96.7562 61.8235 98.9147C61.8468 99.8166 61.6602 100.578 60.5162 100.541C59.5346 100.508 59.0721 100.018 59.0358 98.8767C58.8849 94.1278 58.7347 89.3788 58.5839 84.6299C58.4282 79.7236 58.2775 74.817 58.112 69.9111C58.075 68.815 57.9854 67.7209 57.9351 66.5112Z" fill="#4A5D5C"/>
<path d="M109.762 112.632C110.137 112.739 110.423 112.83 110.716 112.924C108.762 113.299 105.488 112.627 103.91 111.531C102.559 110.592 102.547 109.111 104.092 108.424C105.563 107.77 107.206 107.496 108.797 107.177C109.564 107.023 110.385 107.15 111.195 107.278C110.194 107.47 109.167 107.577 108.198 107.88C107.377 108.136 106.539 108.502 105.858 109.027C104.914 109.754 104.943 110.627 105.968 111.171C107.134 111.79 108.432 112.146 109.762 112.632Z" fill="#FF928B"/>
<path d="M139.554 105.025C140.651 105.021 141.641 105.021 142.631 105.021C142.633 105.052 142.634 105.082 142.635 105.113C141.671 105.314 140.705 105.509 139.742 105.72C139.444 105.785 139.141 105.858 138.865 105.985C138.043 106.364 137.002 106.61 136.965 107.764C136.926 108.972 137.906 109.41 138.819 109.721C139.957 110.108 141.136 110.368 142.294 110.916C141.435 110.848 140.554 110.884 139.724 110.688C138.4 110.376 137.032 110.076 135.825 109.469C134.16 108.631 134.198 107.039 135.881 106.203C136.994 105.65 138.254 105.41 139.554 105.025Z" fill="#8CCDE4"/>
<path d="M174.212 103.846C173.692 103.503 173.214 103.239 172.824 102.875C172.116 102.214 172.1 101.172 172.868 100.632C174.946 99.1722 177.271 98.7154 179.759 99.0887C178.63 99.4203 177.498 99.7376 176.376 100.092C176.053 100.195 175.745 100.378 175.458 100.569C174.377 101.289 174.273 102.35 175.371 102.991C176.407 103.595 177.605 103.909 178.74 104.327C179.042 104.439 179.374 104.466 179.674 104.63C177.798 104.953 176.019 104.612 174.212 103.846Z" fill="#FF928B"/>
<path d="M154.864 94.3932C155.392 94.4979 155.824 94.597 156.534 94.7594C154.102 95.0249 152.014 94.7501 150.089 93.8251C149.343 93.4663 148.495 92.6808 148.295 91.9216C147.997 90.7962 149.113 90.2259 149.981 89.8526C151.762 89.0865 153.644 88.8197 155.622 89.2196C155.336 89.2826 155.044 89.3273 154.764 89.4117C153.709 89.7297 152.604 89.9477 151.626 90.4342C151.135 90.6783 150.62 91.4074 150.595 91.9406C150.575 92.3792 151.176 93.0363 151.653 93.2719C152.639 93.7584 153.725 94.0284 154.864 94.3932Z" fill="#FAE580"/>
<path d="M158.728 118.764C158.178 117.567 158.347 116.951 159.341 116.343C161.596 114.965 164.064 114.863 166.566 114.986C165.174 115.365 163.78 115.71 162.407 116.13C161.627 116.369 160.866 116.741 160.835 117.757C160.803 118.814 161.57 119.313 162.357 119.595C163.713 120.081 165.121 120.411 166.359 120.764C164.003 121.24 160.399 120.358 158.728 118.764Z" fill="#FAE580"/>
<path d="M117.882 92.4841C120.148 91.0348 122.585 90.9405 125.027 90.8685C125.047 90.9638 125.067 91.0591 125.086 91.1543C124.08 91.3603 123.047 91.4824 122.075 91.7986C121.292 92.0529 120.528 92.4633 119.853 92.9473C119.046 93.5253 119.108 94.2581 119.854 94.9018C121.108 95.984 122.627 96.3274 124.195 96.525C124.487 96.5618 124.781 96.5829 125.074 96.6113C125.068 96.7408 125.061 96.8702 125.055 96.9997C123.903 96.9084 122.72 96.9527 121.606 96.6896C120.362 96.3957 119.106 95.9624 117.99 95.3355C116.643 94.5792 116.659 93.6747 117.882 92.4841Z" fill="#8CCDE4"/>
</g>
<defs>
<clipPath id="clip0_62_51">
<rect width="216" height="189" fill="white"/>
</clipPath>
</defs>
</svg>
