<svg width="115" height="141" viewBox="0 0 115 141" fill="none" xmlns="http://www.w3.org/2000/svg">
<g clip-path="url(#clip0_205_27)">
<path d="M1 63C1 42 1 21.5 1 1C39.3333 1 77.6667 1 116 1C116 48 116 95 116 142C77.6667 142 39.3333 142 1 142C1 115.833 1 89.6667 1 63ZM36.9056 126.435C36.9056 128.88 36.9056 131.326 36.9056 133.799C38.9167 133.799 40.3246 133.799 41.841 133.799C41.841 112.133 41.841 90.7334 41.841 69.2097C40.1514 69.2097 38.7469 69.2097 36.8537 69.2097C36.8537 77.4732 36.8537 85.5121 36.8537 93.5509C36.2505 93.7386 35.6472 93.9264 35.0439 94.1141C33.976 91.4778 32.15 88.8875 31.9867 86.1963C31.5536 79.0598 31.7524 71.8783 31.8617 64.7172C31.9814 56.8714 35.7351 53.2102 43.6435 53.1747C55.3036 53.1222 66.9641 53.1733 78.6245 53.1785C84.0555 53.1809 89.4865 53.1789 95.459 53.1789C93.6766 58.3592 90.7707 60.9943 85.8592 61.0521C80.0297 61.1207 74.1903 61.2933 68.372 61.037C64.2628 60.856 62.86 62.2076 62.8988 66.4507C63.0905 87.4376 62.9803 108.427 62.9949 129.416C62.9959 130.872 63.1461 132.327 63.2279 133.799C64.9511 133.799 66.3604 133.799 68.4012 133.799C68.4012 111.163 68.4012 88.7878 68.4012 66.4711C75.6119 66.4711 82.1813 66.4711 88.7507 66.4711C89.143 66.8847 89.5353 67.2984 89.9276 67.712C88.4767 69.6513 87.0179 71.5848 85.5772 73.5316C84.313 75.2399 82.618 76.7952 81.9035 78.7126C80.0132 83.7853 82.7302 89.5521 87.5829 91.5948C92.3307 93.5935 98.1008 91.7108 100.665 87.3262C103.421 82.6158 102.23 76.8161 97.8248 73.4878C93.1966 69.9911 92.8373 66.2004 96.642 61.7813C97.6134 60.6531 98.4901 59.4214 99.2632 58.1479C103.831 50.6238 103.055 48.8438 94.5503 47.509C94.5503 43.4638 94.5503 39.397 94.5503 35.2428C97.1369 35.0606 99.4072 34.9007 101.973 34.72C101.898 32.9988 101.837 31.5996 101.772 30.1261C99.1696 29.9391 96.9114 29.7769 94.5541 29.6076C94.5541 27.8754 94.5541 26.4808 94.5541 24.9478C97.1357 24.7235 99.4126 24.5256 101.813 24.317C101.813 22.6488 101.813 21.2224 101.813 19.5968C99.3085 19.3845 97.0413 19.1923 94.7061 18.9943C94.3441 17.2587 94.0225 15.7175 93.6491 13.9272C91.9542 14.1078 90.5663 14.2557 88.8304 14.4407C88.8304 25.7332 88.8304 36.6644 88.8304 48.0404C86.8208 48.0404 85.1978 48.0412 83.5748 48.0402C70.0821 48.0327 56.5891 47.9702 43.0968 48.0347C32.7076 48.0844 26.6936 54.0712 26.5483 64.4699C26.4482 71.6313 26.5993 78.7961 26.511 85.9578C26.4378 91.8978 29.2102 95.958 34.1174 99.065C35.4432 99.9044 36.7225 101.937 36.7802 103.469C37.0562 110.788 36.9046 118.123 36.9056 126.435ZM52.4948 14.0536C45.9278 14.6216 41.083 17.6702 40.1662 23.0662C38.6875 31.7688 38.886 38.8296 44.5864 42.9005C45.9044 43.8418 47.5125 44.5362 49.0904 44.9274C57.1662 46.9296 64.0909 42.5379 65.5365 34.6276C67.6925 22.83 63.4527 15.6873 52.4948 14.0536ZM49.9358 110.504C49.9358 118.282 49.9358 126.06 49.9358 134.089C51.9632 134 53.3766 133.938 54.8574 133.873C54.8574 120.766 54.8574 108.027 54.8574 94.9822C53.134 95.0844 51.7314 95.1676 49.9358 95.2742C49.9358 100.236 49.9358 104.871 49.9358 110.504Z" fill="#FDFDFD"/>
<path d="M36.9055 125.944C36.9048 118.123 37.0564 110.788 36.7804 103.469C36.7226 101.937 35.4433 99.9044 34.1176 99.065C29.2103 95.958 26.438 91.8978 26.5112 85.9578C26.5994 78.7961 26.4484 71.6313 26.5485 64.4699C26.6938 54.0713 32.7078 48.0844 43.0969 48.0347C56.5893 47.9702 70.0823 48.0327 83.575 48.0403C85.1979 48.0412 86.8209 48.0404 88.8305 48.0404C88.8305 36.6644 88.8305 25.7332 88.8305 14.4407C90.5665 14.2557 91.9544 14.1078 93.6492 13.9272C94.0227 15.7175 94.3442 17.2587 94.7063 18.9943C97.0414 19.1923 99.3087 19.3845 101.813 19.5969C101.813 21.2224 101.813 22.6488 101.813 24.3171C99.4128 24.5256 97.1359 24.7235 94.5543 24.9478C94.5543 26.4808 94.5543 27.8754 94.5543 29.6076C96.9116 29.7769 99.1698 29.9392 101.772 30.1261C101.837 31.5996 101.898 32.9989 101.973 34.72C99.4074 34.9007 97.1371 35.0606 94.5505 35.2428C94.5505 39.397 94.5505 43.4638 94.5505 47.509C103.055 48.8438 103.831 50.6238 99.2634 58.1479C98.4903 59.4214 97.6135 60.6531 96.6422 61.7813C92.8375 66.2004 93.1967 69.9911 97.825 73.4878C102.23 76.8161 103.421 82.6159 100.666 87.3262C98.101 91.7108 92.3309 93.5935 87.583 91.5948C82.7304 89.5521 80.0133 83.7853 81.9037 78.7126C82.6182 76.7952 84.3131 75.24 85.5773 73.5316C87.018 71.5848 88.4768 69.6513 89.9277 67.712C89.5355 67.2984 89.1432 66.8848 88.7509 66.4711C82.1815 66.4711 75.6121 66.4711 68.4014 66.4711C68.4014 88.7878 68.4014 111.163 68.4014 133.799C66.3605 133.799 64.9513 133.799 63.228 133.799C63.1463 132.327 62.9961 130.872 62.9951 129.416C62.9805 108.427 63.0906 87.4376 62.899 66.4507C62.8602 62.2076 64.263 60.856 68.3722 61.037C74.1904 61.2933 80.0299 61.1207 85.8594 61.0521C90.7708 60.9944 93.6767 58.3592 95.4592 53.1789C89.4866 53.1789 84.0557 53.1809 78.6247 53.1785C66.9643 53.1733 55.3037 53.1222 43.6436 53.1747C35.7353 53.2102 31.9816 56.8714 31.8619 64.7172C31.7526 71.8783 31.5538 79.0598 31.9869 86.1963C32.1502 88.8875 33.9761 91.4778 35.0441 94.1141C35.6474 93.9264 36.2506 93.7387 36.8539 93.5509C36.8539 85.5121 36.8539 77.4732 36.8539 69.2097C38.7471 69.2097 40.1515 69.2097 41.8412 69.2097C41.8412 90.7334 41.8412 112.133 41.8412 133.799C40.3248 133.799 38.9169 133.799 36.9058 133.799C36.9058 131.326 36.9058 128.881 36.9055 125.944ZM96.1347 79.4046C92.2469 75.8493 87.6872 76.3338 86.9799 80.5763C86.7005 82.2523 87.4197 84.8223 88.6379 85.8155C89.8519 86.8053 93.0907 87.1681 93.9602 86.3081C95.427 84.8571 95.7244 82.2239 96.1347 79.4046Z" fill="#30BFBA"/>
<path d="M52.9109 14.0562C63.4527 15.6872 67.6926 22.8298 65.5366 34.6274C64.091 42.5378 57.1663 46.9294 49.0904 44.9273C47.5125 44.5361 45.9045 43.8417 44.5865 42.9004C38.886 38.8295 38.6876 31.7687 40.1662 23.066C41.0831 17.6701 45.9278 14.6215 52.9109 14.0562ZM59.5962 23.4226C57.2522 19.4928 53.705 18.7927 49.6766 20.0057C45.5898 21.2362 44.8212 24.5675 44.9396 28.3181C44.9815 29.645 44.8997 30.976 44.9497 32.3022C45.1395 37.3414 47.8529 40.0524 52.6572 40.0448C57.3188 40.0374 59.9392 37.5979 60.1626 32.6822C60.2898 29.8805 59.9762 27.0587 59.5962 23.4226Z" fill="#30BFBA"/>
<path d="M49.936 110.005C49.936 104.871 49.936 100.236 49.936 95.2741C51.7316 95.1676 53.1342 95.0844 54.8576 94.9822C54.8576 108.026 54.8576 120.766 54.8576 133.873C53.3768 133.938 51.9634 134 49.9361 134.088C49.9361 126.06 49.936 118.282 49.936 110.005Z" fill="#30BFBA"/>
<path d="M96.3242 79.7462C95.7245 82.2238 95.4271 84.8571 93.9602 86.3081C93.0907 87.1681 89.852 86.8052 88.638 85.8155C87.4198 84.8222 86.7006 82.2523 86.98 80.5763C87.6873 76.3338 92.247 75.8493 96.3242 79.7462Z" fill="#F6F6F6"/>
<path d="M59.7284 23.8345C59.976 27.0589 60.2897 29.8807 60.1624 32.6824C59.9391 37.5981 57.3186 40.0376 52.657 40.045C47.8528 40.0526 45.1393 37.3416 44.9495 32.3024C44.8996 30.9762 44.9813 29.6452 44.9394 28.3183C44.821 24.5677 45.5897 21.2364 49.6765 20.0059C53.7049 18.7929 57.2521 19.493 59.7284 23.8345Z" fill="#FAFAFA"/>
</g>
<defs>
<clipPath id="clip0_205_27">
<rect width="115" height="141" fill="white"/>
</clipPath>
</defs>
</svg>
