<svg width="194" height="226" viewBox="0 0 194 226" fill="none" xmlns="http://www.w3.org/2000/svg">
<path d="M91.2838 225.798C61.18 225.798 31.0762 225.798 0.869385 225.798C0.869385 151.579 0.869385 77.3602 1.27682 2.76762C38.3055 2.39386 74.9268 2.37728 111.548 2.44633C113.255 2.44955 114.96 3.21754 116.499 3.84124C97.2835 14.6529 78.1683 25.1524 59.225 35.9071C52.6574 39.6357 52.7892 40.236 55.3547 46.9253C61.8838 63.9486 68.3898 80.9796 74.8223 98.0337C75.4686 99.7472 75.84 101.639 75.8475 103.45C75.9218 121.397 75.8311 139.344 75.9577 157.29C75.9769 160.006 75.1351 161.6 72.4909 162.96C59.3653 169.709 46.3461 176.633 33.3046 183.519C27.3625 186.656 27.3458 189.329 33.2424 192.636C46.5784 200.116 59.9644 207.521 73.2606 215.06C79.3527 218.514 85.2812 222.211 91.2838 225.798Z" fill="white"/>
<path d="M193.869 2.39368C193.869 76.7773 193.869 151.161 193.869 225.798C163.424 225.798 132.978 225.798 102.165 225.52C102.271 224.94 102.727 224.612 103.218 224.339C125.83 211.75 148.443 199.164 171.06 186.584C178.015 182.715 178.077 180.329 171.33 176.511C166.409 173.726 161.582 170.795 156.577 168.146C154.013 166.789 153.146 165.144 153.157 162.41C153.273 133.861 153.276 105.311 153.154 76.7618C153.142 73.9286 152.567 70.9343 151.462 68.2942C142.858 47.752 134.083 27.2704 125.28 6.79929C124.614 5.25227 123.328 3.93013 122.753 2.46712C146.74 2.41841 170.305 2.40604 193.869 2.39368Z" fill="white"/>
<path d="M122.331 2.50342C123.328 3.93009 124.614 5.25222 125.28 6.79924C134.083 27.2704 142.858 47.752 151.462 68.2942C152.567 70.9343 153.142 73.9286 153.154 76.7617C153.276 105.311 153.273 133.861 153.157 162.41C153.146 165.144 154.013 166.789 156.577 168.146C161.582 170.795 166.409 173.726 171.33 176.511C178.077 180.329 178.015 182.715 171.06 186.584C148.443 199.164 125.83 211.75 103.218 224.339C102.727 224.612 102.271 224.94 101.758 225.52C98.5058 225.798 95.2953 225.798 91.6843 225.798C85.2812 222.211 79.3527 218.514 73.2607 215.06C59.9644 207.521 46.5784 200.116 33.2424 192.636C27.3459 189.329 27.3626 186.657 33.3046 183.519C46.3462 176.633 59.3654 169.709 72.491 162.96C75.1351 161.6 75.9769 160.006 75.9577 157.29C75.8312 139.344 75.9218 121.397 75.8476 103.45C75.8401 101.639 75.4686 99.7473 74.8223 98.0338C68.3899 80.9796 61.8838 63.9487 55.3548 46.9253C52.7892 40.2361 52.6574 39.6358 59.2251 35.9071C78.1683 25.1525 97.2835 14.6529 116.816 3.76264C118.977 3.1492 120.654 2.82631 122.331 2.50342ZM100.686 121.676C100.686 148.405 100.686 175.134 100.686 202.721C103.336 201.264 104.94 200.414 106.51 199.514C117.308 193.316 127.92 186.821 138.972 181.032C143.969 178.416 145.502 175.271 145.471 170.253C145.285 139.416 145.404 108.578 145.323 77.7408C145.317 75.5469 144.892 73.2223 144.032 71.1828C137.5 55.7085 130.817 40.2881 124.169 24.8557C122.33 20.5879 120.447 16.3361 118.442 11.7529C116.293 12.8277 114.768 13.5359 113.3 14.3333C102.093 20.4225 90.9477 26.6097 79.6606 32.571C76.9932 33.9798 76.4931 35.2779 77.5038 37.9282C82.95 52.2093 87.7317 66.7173 93.6198 80.8389C99.0389 93.8359 102.066 106.974 100.686 121.676ZM92.2726 102.79C92.092 101.749 92.0677 100.66 91.7074 99.6741C85.4544 82.5739 79.1694 65.4835 72.8662 48.3987C71.7317 45.3237 70.4855 42.2833 69.2713 39.1769C62.4188 42.3538 62.3756 42.3676 64.5782 48.1479C69.9218 62.1719 75.5177 76.119 80.5709 90.23C82.434 95.4327 84.0238 100.999 84.0882 106.416C84.4305 135.246 84.2491 164.081 84.2494 192.915C84.2495 199.855 84.3333 199.959 92.2755 202.389C92.2755 169.327 92.2755 136.43 92.2726 102.79ZM143.893 193.085C150.518 189.389 157.143 185.694 164.575 181.548C160.442 179.18 157.158 177.297 154.771 175.929C152.882 178.882 152.019 182.07 149.826 183.369C133.541 193.02 116.961 202.248 100.558 211.734C97.7363 213.366 95.2779 213.477 92.4917 211.968C88.2556 209.674 83.9984 207.408 79.682 205.245C76.8152 203.808 75.6769 201.759 75.7302 198.755C75.8717 190.781 75.7928 182.804 75.7633 174.828C75.7583 173.471 75.5641 172.114 75.3879 169.877C63.6183 176.129 52.6977 181.931 41.3277 187.972C42.428 188.801 42.9136 189.263 43.4901 189.589C60.49 199.198 77.4772 208.827 94.5604 218.31C95.5912 218.882 97.7043 218.747 98.7983 218.147C113.707 209.982 128.525 201.676 143.893 193.085Z" fill="#264164"/>
<path d="M122.753 2.46704C120.654 2.82627 118.977 3.14916 116.983 3.55072C114.96 3.21757 113.255 2.44958 111.548 2.44636C74.9266 2.37731 38.3054 2.39389 1.27669 2.39373C1.01415 1.86168 1.06898 0.916941 1.31987 0.870838C2.29503 0.691641 3.33247 0.797849 4.34673 0.797849C66.3617 0.797849 128.377 0.793512 190.392 0.831087C191.551 0.831789 192.71 1.32977 193.869 1.99466C170.305 2.40596 146.74 2.41833 122.753 2.46704Z" fill="white"/>
<path d="M100.686 121.277C102.066 106.974 99.0388 93.8359 93.6197 80.8389C87.7316 66.7172 82.95 52.2092 77.5037 37.9282C76.493 35.2779 76.9931 33.9798 79.6605 32.5709C90.9476 26.6096 102.093 20.4225 113.3 14.3333C114.768 13.5358 116.293 12.8276 118.442 11.7528C120.447 16.3361 122.33 20.5878 124.168 24.8556C130.817 40.2881 137.5 55.7084 144.032 71.1828C144.892 73.2223 145.317 75.5468 145.322 77.7408C145.404 108.578 145.285 139.416 145.471 170.252C145.501 175.271 143.969 178.415 138.972 181.032C127.92 186.82 117.308 193.316 106.51 199.514C104.94 200.414 103.336 201.264 100.686 202.721C100.686 175.134 100.686 148.405 100.686 121.277ZM134.194 58.2926C129.824 47.3168 125.443 36.3448 121.092 25.3625C119.968 22.5246 118.169 20.3325 114.68 22.0733C105.146 26.8296 95.7646 31.8446 86.3377 36.781C83.9587 38.0268 83.364 39.8738 84.3263 42.2199C90.8007 58.0044 97.2532 73.7965 103.727 89.5813C105.076 92.8719 107.522 93.3537 110.62 91.6378C119.42 86.7641 128.189 81.8436 136.978 76.9533C139.615 75.4861 140.316 73.5234 139.2 70.8525C137.543 66.8856 136.037 62.8653 134.194 58.2926ZM118.711 103.759C124.841 100.289 130.957 96.7989 137.107 93.3581C139.668 91.925 141.795 90.193 139.818 87.3194C137.801 84.3891 135.182 85.5812 132.721 87.0672C131.037 88.084 129.299 89.0263 127.586 90.0018C121.831 93.2771 115.941 96.3765 110.427 99.9637C109.201 100.762 109.302 103.277 108.792 105.002C110.685 105.375 112.597 106.088 114.465 106C115.734 105.941 116.94 104.757 118.711 103.759Z" fill="#5FC5C2"/>
<path d="M92.274 103.161C92.2754 136.43 92.2754 169.327 92.2754 202.389C84.3332 199.958 84.2494 199.855 84.2493 192.915C84.2491 164.081 84.4304 135.246 84.0881 106.416C84.0238 100.999 82.4339 95.4327 80.5708 90.23C75.5176 76.1189 69.9218 62.1719 64.5781 48.1479C62.3756 42.3676 62.4187 42.3537 69.2712 39.1769C70.4854 42.2833 71.7316 45.3236 72.8661 48.3987C79.1693 65.4834 85.4543 82.5738 91.7073 99.674C92.0677 100.66 92.0919 101.749 92.274 103.161Z" fill="#269390"/>
<path d="M143.63 193.245C128.525 201.676 113.707 209.982 98.7982 218.147C97.7043 218.746 95.5911 218.882 94.5604 218.31C77.4771 208.827 60.49 199.198 43.49 189.589C42.9135 189.263 42.4279 188.801 41.3276 187.972C52.6977 181.931 63.6183 176.129 75.3879 169.877C75.564 172.114 75.7583 173.471 75.7633 174.828C75.7927 182.804 75.8717 190.781 75.7301 198.755C75.6768 201.759 76.8151 203.808 79.6819 205.245C83.9983 207.408 88.2555 209.674 92.4916 211.968C95.2778 213.477 97.7362 213.366 100.558 211.734C116.96 202.248 133.541 193.02 149.826 183.369C152.018 182.07 152.882 178.882 154.771 175.929C157.158 177.297 160.442 179.179 164.575 181.548C157.143 185.694 150.518 189.389 143.63 193.245Z" fill="#347371"/>
<path d="M146.457 176.752C146.43 176.71 146.484 176.793 146.457 176.752V176.752Z" fill="#173657"/>
<path d="M134.33 58.5802C136.037 62.8653 137.543 66.8856 139.2 70.8526C140.316 73.5235 139.615 75.4862 136.978 76.9534C128.189 81.8436 119.42 86.7642 110.62 91.6378C107.522 93.3538 105.076 92.8719 103.727 89.5813C97.2532 73.7966 90.8007 58.0045 84.3263 42.22C83.364 39.8738 83.9587 38.0268 86.3377 36.7811C95.7646 31.8447 105.146 26.8297 114.68 22.0734C118.169 20.3326 119.968 22.5247 121.092 25.3625C125.443 36.3448 129.824 47.3168 134.33 58.5802ZM114.655 31.727C114.018 31.65 113.218 31.3055 112.77 31.5363C106.115 34.9605 99.5058 38.4609 92.5496 42.1203C98.1591 55.8932 103.686 69.4625 109.396 83.4829C116.213 79.6979 122.661 76.2329 128.913 72.4924C129.643 72.0557 129.78 69.939 129.368 68.8693C124.647 56.6386 119.767 44.46 114.655 31.727Z" fill="#274263"/>
<path d="M118.442 103.918C116.94 104.757 115.734 105.941 114.465 106C112.597 106.088 110.685 105.375 108.792 105.002C109.302 103.277 109.201 100.762 110.427 99.9637C115.941 96.3765 121.831 93.2771 127.585 90.0018C129.299 89.0263 131.037 88.0841 132.721 87.0672C135.182 85.5813 137.801 84.3892 139.818 87.3194C141.795 90.193 139.668 91.925 137.107 93.3581C130.957 96.799 124.841 100.289 118.442 103.918Z" fill="#274264"/>
<path d="M114.792 31.9972C119.767 44.4599 124.647 56.6386 129.368 68.8693C129.78 69.9389 129.643 72.0556 128.913 72.4924C122.661 76.2328 116.213 79.6978 109.396 83.4829C103.686 69.4625 98.1591 55.8931 92.5496 42.1202C99.5058 38.4609 106.115 34.9604 112.77 31.5362C113.218 31.3054 114.018 31.65 114.792 31.9972Z" fill="#EBFCFC"/>
</svg>
