<svg width="220" height="237" viewBox="0 0 220 237" fill="none" xmlns="http://www.w3.org/2000/svg">
<g clip-path="url(#clip0_77_7)">
<path d="M112.634 124.857C99.8389 136.613 98.4145 147.285 113.032 159.724C122.587 167.854 129.319 179.025 137.491 189.049C104.075 204.208 96.5624 171.874 77.783 159.383C75.3002 171.038 74.9999 181.659 70.3072 190.018C68.3867 193.439 56.9694 191.972 48.1224 192.914C48.1224 153.309 47.1771 115.7 48.5527 78.1685C49.1677 61.3888 64.7541 73.1329 73.5053 67.0071C74.948 88.0864 76.1957 106.315 80.2895 124.729C92.9684 124.894 102.801 124.875 112.634 124.857Z" fill="#312522"/>
<path d="M114.017 124.503C102.801 124.875 92.9684 124.894 81.8634 124.89C93.5357 98.6985 117.688 97.3892 146.222 98.8753C157.904 98.6095 166.521 98.4678 175.138 98.3262C184.624 98.3262 194.11 98.3262 203.811 98.3262C207.763 117.152 204.637 120.279 174.916 123.571C163.843 123.67 155.306 123.833 146.769 123.996C136.313 124.047 125.857 124.098 114.017 124.503Z" fill="#DF1A29"/>
<path d="M146.761 125.605C155.306 123.833 163.843 123.67 173.554 123.883C174.79 132.418 175.288 140.6 174.813 148.731C174.066 161.531 175.325 171.721 193.248 170.355C195.964 170.148 202.238 177.045 201.58 179.12C200.04 183.981 196.097 190.566 191.712 191.784C164.202 199.425 146.793 185.995 146.718 158.224C146.691 147.888 146.739 137.551 146.761 125.605Z" fill="#392D2A"/>
<path d="M175.126 96.8714C166.521 98.4678 157.904 98.6094 147.911 98.5816C146.579 96.2503 146.638 94.0886 146.665 91.9265C146.964 67.7924 147.375 67.446 175.113 70.3879C175.113 78.5293 175.113 86.973 175.126 96.8714Z" fill="#3B2E2B"/>
</g>
<defs>
<clipPath id="clip0_77_7">
<rect width="220" height="237" fill="white"/>
</clipPath>
</defs>
</svg>
