<svg width="621" height="621" viewBox="0 0 621 621" fill="none" xmlns="http://www.w3.org/2000/svg">
<path d="M310.402 51.7336C167.617 51.7336 51.7339 167.617 51.7339 310.402C51.7339 453.187 167.617 569.07 310.402 569.07C453.187 569.07 569.071 453.187 569.071 310.402C569.071 167.617 453.187 51.7336 310.402 51.7336ZM310.402 129.334C353.341 129.334 388.003 163.996 388.003 206.935C388.003 249.874 353.341 284.535 310.402 284.535C267.463 284.535 232.802 249.874 232.802 206.935C232.802 163.996 267.463 129.334 310.402 129.334ZM310.402 496.643C245.735 496.643 188.569 463.534 155.201 413.352C155.977 361.877 258.669 333.682 310.402 333.682C361.877 333.682 464.827 361.877 465.603 413.352C432.235 463.534 375.069 496.643 310.402 496.643Z" fill="#31CECA"/>
</svg>
