<svg width="221" height="231" viewBox="0 0 221 231" fill="none" xmlns="http://www.w3.org/2000/svg">
<g clip-path="url(#clip0_62_119)">
<path d="M121.723 231.451C81.1582 231.451 40.8096 231.451 0.446289 231.451C0.446289 154.48 0.446289 77.5094 0.446289 0.494812C74.0524 0.494812 147.673 0.494812 221.363 0.494812C221.363 77.4511 221.363 154.451 221.363 231.451C188.251 231.451 155.095 231.451 121.723 231.451ZM169.647 75.9191C170.083 73.5133 171.556 72.5604 173.801 72.6326C175.02 72.6718 176.24 72.6556 177.46 72.6366C182.472 72.5586 187.483 72.4699 192.819 72.429C201.87 70.7393 207.88 63.1891 207.602 53.8567C207.341 45.124 200.861 37.8035 192.115 36.64C176.206 36.3037 160.513 38.205 145.226 42.7033C129.564 47.3118 114.028 52.4109 98.5303 57.5997C77.0348 64.7966 55.0953 68.9166 32.4939 69.0411C25.8815 69.0775 20.0854 66.9836 15.1723 62.3133C14.9533 62.1051 14.652 61.9916 14.3202 61.7928C14.2799 62.1464 14.2485 62.2929 14.2485 62.4394C14.2462 101.978 14.2134 141.517 14.2686 181.056C14.2826 191.014 21.9128 198.894 31.4635 198.947C45.0896 199.022 58.6719 197.938 71.8999 194.565C85.1915 191.177 98.3024 186.988 111.428 182.923C128.403 177.666 145.086 171.291 163.078 168.675C165.247 168.352 167.415 168.029 169.635 167.699C169.635 166.67 169.635 165.849 169.635 165.027C169.635 139.563 169.638 114.098 169.632 88.6332C169.631 84.5034 169.59 80.3736 169.647 75.9191ZM176.541 142.345C176.541 164.713 176.541 187.082 176.541 209.577C177.723 209.415 178.657 209.347 179.567 209.152C196.173 205.592 207.593 191.062 207.61 173.357C207.641 140.356 207.619 107.355 207.614 74.3547C207.614 73.8049 207.536 73.2551 207.486 72.5842C199.838 78.7742 196.771 79.8575 187.119 79.8575C183.625 79.8575 180.13 79.8575 176.541 79.8575C176.541 100.718 176.541 121.306 176.541 142.345ZM51.8221 60.719C52.0123 57.5027 52.2026 54.2863 52.3928 51.0707C50.9193 50.9915 49.8797 50.9357 48.6673 50.8705C48.6673 42.38 48.6673 34.0809 48.6673 25.7437C42.5186 25.7437 36.5555 25.6869 30.5946 25.7839C29.1137 25.808 27.5881 26.1642 26.172 26.6505C18.2141 29.3837 13.1432 37.8084 14.378 46.0985C15.739 55.2356 22.7073 61.8313 31.412 61.7545C38.0881 61.6956 44.7601 61.1381 51.8221 60.719Z" fill="white"/>
<path d="M162.723 168.642C145.086 171.291 128.403 177.666 111.428 182.922C98.3025 186.987 85.1916 191.177 71.9 194.565C58.672 197.938 45.0896 199.022 31.4636 198.947C21.9129 198.894 14.2826 191.014 14.2687 181.056C14.2135 141.517 14.2463 101.978 14.2486 62.4393C14.2486 62.2929 14.2799 62.1464 14.3203 61.7928C14.6521 61.9916 14.9534 62.1051 15.1724 62.3132C20.0854 66.9836 25.8816 69.0774 32.494 69.041C55.0954 68.9165 77.0349 64.7966 98.5304 57.5997C114.028 52.4108 129.564 47.3118 145.226 42.7032C160.513 38.205 176.206 36.3037 192.335 36.8533C193.13 37.7335 193.658 38.4551 194.288 39.0591C202.856 47.2644 202.87 61.9287 194.26 70.1646C193.587 70.8081 193.079 71.6405 192.495 72.385C187.483 72.4698 182.472 72.5585 177.46 72.6366C176.241 72.6555 175.02 72.6717 173.801 72.6325C171.556 72.5603 170.083 73.5133 169.411 76.0828C168.248 76.2231 167.323 76.1995 166.47 76.0344C167.279 75.2885 168.015 74.6841 168.973 73.8971C166.019 70.8804 163.416 68.2219 160.553 65.2988C163.347 62.5047 165.975 59.8761 168.335 57.5151C166.641 55.6719 165.119 54.0171 163.251 51.9852C160.786 54.6414 158.257 57.367 155.541 60.2941C152.986 57.5605 150.482 54.882 147.941 52.1626C146.334 53.8642 144.788 55.5009 142.988 57.4074C145.597 60.0241 148.222 62.6579 150.852 65.2956C148.552 67.6786 146.422 69.8864 144.213 72.1757C143.726 71.939 143.153 71.6455 142.569 71.3787C131.157 66.1668 117.004 69.8575 110.779 79.9421C109.323 82.3012 107.848 83.4934 105.16 84.0759C99.6812 85.2631 95.6793 88.7285 94.1319 94.5727C92.7284 99.8737 94.3828 104.377 98.1583 108.011C103.269 112.931 111.214 113.766 117.423 110.066C118.529 109.407 119.315 109.358 120.527 109.876C130.16 113.991 139.413 113.232 147.841 106.677C157.346 99.2847 158.462 86.7875 150.71 77.4276C150.49 77.161 150.323 76.8449 150.406 76.9717C152.371 74.8365 154.194 72.8551 155.716 71.2002C158.014 73.4045 160.39 75.6831 162.754 78.1785C162.737 108.478 162.73 138.56 162.723 168.642ZM75.9419 182.505C82.6591 178.986 88.1495 174.073 91.6989 167.054C93.4535 163.585 94.234 159.894 93.2502 155.96C92.256 151.985 89.7241 149.144 86.887 146.551C84.5615 144.426 82.105 142.456 79.804 140.304C77.8414 138.468 76.3839 136.343 76.336 133.346C76.2991 131.032 75.1029 129.077 73.2054 127.99C71.2877 126.891 69.1866 125.894 67.0555 125.492C56.9713 123.592 46.8228 124.157 36.8022 125.805C27.9235 127.265 22.7166 133.488 19.8477 142.144C16.2742 152.926 20.4855 164.693 30.2583 169.705C39.2584 174.32 48.5292 178.355 57.5975 182.83C63.7119 185.848 69.6581 185.569 75.9419 182.505ZM114.455 160.833C120.624 163.398 126.889 163.537 133.199 161.524C134.554 161.092 135.887 160.465 137.105 159.707C143.655 155.635 143.722 148.29 137.067 144.393C129.861 140.173 122.226 140.195 114.64 143.213C110.893 144.704 107.645 147.168 107.544 151.886C107.445 156.52 110.566 158.882 114.455 160.833ZM158.062 120.316C157.719 120.186 157.353 119.897 157.039 119.95C155.146 120.267 153.266 120.662 151.209 121.065C151.653 123.504 152.072 125.802 152.503 128.173C154.879 127.682 157.027 127.238 159.268 126.775C158.868 124.595 158.506 122.626 158.062 120.316ZM127.387 132.889C128.916 132.649 130.445 132.409 132.04 132.159C131.574 129.656 131.156 127.415 130.732 125.136C128.502 125.44 126.478 125.716 124.292 126.014C124.465 128.385 124.631 130.662 124.808 133.09C125.616 133.038 126.311 132.994 127.387 132.889ZM139.656 130.695C141.598 130.294 143.54 129.894 145.662 129.456C145.236 127.048 144.84 124.815 144.412 122.397C142.064 122.866 139.872 123.304 137.408 123.797C138.084 126.271 138.696 128.509 139.656 130.695ZM54.6222 97.8727C52.6456 97.6217 50.669 97.3706 48.487 97.0934C48.3626 99.5947 48.2491 101.876 48.1288 104.294C50.3185 104.561 52.3609 104.81 54.5229 105.073C54.9094 102.915 55.3047 100.867 55.6095 98.8051C55.6479 98.5457 55.2103 98.2095 54.6222 97.8727ZM113.647 125.532C112.947 125.465 112.247 125.398 111.362 125.313C110.979 127.682 110.617 129.927 110.213 132.429C112.719 132.705 115.022 132.959 117.425 133.224C117.581 130.656 117.719 128.376 117.86 126.046C116.415 125.88 115.22 125.743 113.647 125.532ZM26.232 107.422C27.0287 107.197 27.8254 106.971 28.7482 106.71C28.1038 104.254 27.5272 102.056 26.9241 99.7569C24.6152 100.421 22.5036 101.028 20.2757 101.669C20.8936 104.011 21.4753 106.216 22.1017 108.591C23.4496 108.206 24.6698 107.859 26.232 107.422ZM41.5087 103.797C41.4042 101.603 41.2997 99.4083 41.1876 97.0542C38.5829 97.3946 36.3437 97.6873 33.9381 98.0017C34.3523 100.461 34.7311 102.71 35.1396 105.135C37.2999 104.804 39.3295 104.492 41.5087 103.797ZM97.0894 128.435C99.0237 129.155 100.958 129.875 103.06 130.658C103.743 128.251 104.364 126.062 105.021 123.745C102.903 122.965 100.937 122.241 98.8878 121.486C98.0588 123.534 97.2856 125.379 96.5826 127.253C96.4826 127.52 96.7237 127.926 97.0894 128.435ZM66.9178 101.264C65.594 100.811 64.2702 100.359 62.8419 99.8703C62.1405 102.311 61.5161 104.483 60.8816 106.691C62.9794 107.488 64.8937 108.216 66.9638 109.003C67.8858 106.807 68.7583 104.729 69.7027 102.48C68.7745 102.085 67.9974 101.755 66.9178 101.264ZM81.5011 109.579C79.7873 108.37 78.0735 107.16 76.2564 105.878C75.0463 108.037 73.9316 110.026 72.7703 112.099C74.559 113.362 76.2631 114.566 78.132 115.886C79.4083 114.146 80.6794 112.448 81.8935 110.707C82.0233 110.52 81.82 110.08 81.5011 109.579ZM92.0369 120.304C92.3542 119.674 92.6715 119.043 93.0089 118.372C91.1522 117.103 89.4479 115.938 87.6378 114.701C86.2437 116.67 84.9447 118.505 83.5338 120.498C85.6593 121.949 87.6025 123.276 89.6331 124.662C90.4613 123.184 91.1819 121.899 92.0369 120.304Z" fill="#35C6C2"/>
<path d="M176.541 142.119C176.541 121.306 176.541 100.718 176.541 79.8575C180.13 79.8575 183.625 79.8575 187.119 79.8575C196.771 79.8575 199.838 78.7742 207.486 72.5842C207.536 73.2551 207.614 73.8049 207.614 74.3547C207.62 107.355 207.641 140.356 207.61 173.357C207.594 191.062 196.173 205.592 179.567 209.152C178.657 209.347 177.723 209.415 176.541 209.577C176.541 187.082 176.541 164.713 176.541 142.119Z" fill="#3ED6D2"/>
<path d="M51.628 60.7607C44.7602 61.1381 38.0881 61.6955 31.412 61.7544C22.7074 61.8313 15.7391 55.2356 14.3781 46.0985C13.1432 37.8084 18.2142 29.3837 26.172 26.6505C27.5882 26.1641 29.1138 25.808 30.5947 25.7839C36.5555 25.6869 42.5186 25.7437 48.6674 25.7437C48.6674 34.0809 48.6674 42.3799 48.6674 50.8705C49.8798 50.9356 50.9194 50.9915 52.3928 51.0707C52.2026 54.2863 52.0124 57.5026 51.628 60.7607Z" fill="#419593"/>
<path d="M162.901 168.658C162.73 138.56 162.737 108.478 162.895 78.2449C163.5 78.0988 164.077 78.2901 164.384 78.0703C165.122 77.5413 165.734 76.8198 166.398 76.176C167.323 76.1995 168.248 76.2231 169.371 76.2452C169.59 80.3735 169.631 84.5033 169.632 88.6331C169.638 114.098 169.635 139.563 169.635 165.027C169.635 165.849 169.635 166.67 169.635 167.699C167.415 168.029 165.247 168.352 162.901 168.658Z" fill="#35C6C2"/>
<path d="M192.657 72.407C193.08 71.6405 193.587 70.8081 194.26 70.1646C202.87 61.9287 202.856 47.2644 194.289 39.0591C193.658 38.4551 193.13 37.7335 192.525 36.9286C200.861 37.8035 207.342 45.1239 207.602 53.8567C207.88 63.1891 201.87 70.7392 192.657 72.407Z" fill="#35C6C2"/>
<path d="M166.47 76.0344C165.734 76.8198 165.122 77.5413 164.384 78.0703C164.077 78.2901 163.5 78.0988 162.906 78.028C160.39 75.6831 158.014 73.4045 155.717 71.2002C154.194 72.8551 152.371 74.8366 150.407 76.9717C150.324 76.8449 150.49 77.161 150.71 77.4276C158.462 86.7875 157.346 99.2847 147.841 106.677C139.413 113.232 130.16 113.991 120.527 109.876C119.315 109.358 118.529 109.407 117.423 110.066C111.214 113.766 103.269 112.931 98.1584 108.011C94.383 104.377 92.7285 99.8737 94.1321 94.5727C95.6794 88.7285 99.6814 85.2631 105.16 84.0759C107.848 83.4934 109.323 82.3012 110.779 79.9421C117.004 69.8575 131.157 66.1668 142.57 71.3788C143.154 71.6455 143.726 71.939 144.213 72.1757C146.422 69.8864 148.552 67.6786 150.852 65.2956C148.222 62.6579 145.597 60.0241 142.988 57.4074C144.789 55.5009 146.334 53.8642 147.941 52.1626C150.482 54.882 152.986 57.5605 155.541 60.2941C158.257 57.367 160.787 54.6415 163.252 51.9852C165.12 54.0171 166.641 55.6719 168.335 57.5151C165.975 59.8761 163.347 62.5047 160.553 65.2988C163.416 68.2219 166.019 70.8805 168.974 73.8971C168.015 74.6841 167.279 75.2885 166.47 76.0344ZM144.959 81.5094C140.676 77.3986 135.524 75.7659 129.867 76.3627C123.034 77.0835 117.433 80.0248 114.901 87.2955C113.825 90.3872 113.243 90.6375 110.031 90.8056C107.892 90.9174 105.535 91.3746 103.726 92.4813C99.4513 95.0964 99.546 100.479 103.645 103.392C107.205 105.922 112.111 105.656 115.481 102.749C118.014 100.565 118.489 100.59 121.395 102.239C128.47 106.254 135.602 106.27 142.468 101.86C149.899 97.0863 150.943 88.5602 144.959 81.5094Z" fill="#040403"/>
<path d="M75.7972 182.586C69.6581 185.569 63.7119 185.848 57.5975 182.83C48.5291 178.355 39.2583 174.32 30.2583 169.705C20.4855 164.693 16.2742 152.926 19.8477 142.144C22.7165 133.488 27.9235 127.265 36.8021 125.805C46.8228 124.157 56.9712 123.592 67.0554 125.492C69.1866 125.894 71.2877 126.891 73.2053 127.99C75.1029 129.077 76.2991 131.032 76.336 133.346C76.3838 136.343 77.8413 138.468 79.8039 140.304C82.1049 142.456 84.5614 144.426 86.8869 146.551C89.7241 149.144 92.2559 151.985 93.2502 155.96C94.2339 159.894 93.4535 163.585 91.6989 167.054C88.1495 174.073 82.6591 178.986 75.7972 182.586ZM82.4312 168.482C82.79 168.013 83.1569 167.549 83.5063 167.072C88.2488 160.593 87.8811 156.906 81.9851 151.664C79.4662 149.425 76.8989 147.24 74.463 144.906C72.0297 142.574 70.011 139.765 69.7609 136.276C69.5644 133.534 68.1431 132.91 66.0893 132.58C65.3092 132.455 64.5313 132.174 63.7552 132.184C55.7197 132.295 47.6754 132.249 39.6526 132.656C32.5395 133.018 27.4473 138.482 25.8099 146.795C24.4832 153.532 27.3529 160.242 33.5336 163.33C43.1188 168.119 52.8421 172.617 62.617 176.968C64.4506 177.785 66.8891 177.797 68.8948 177.378C74.2996 176.248 78.5141 172.845 82.4312 168.482Z" fill="#030302"/>
<path d="M114.307 160.755C110.566 158.882 107.445 156.52 107.544 151.886C107.645 147.168 110.893 144.704 114.64 143.213C122.226 140.195 129.861 140.173 137.066 144.393C143.722 148.29 143.655 155.635 137.105 159.707C135.887 160.465 134.554 161.092 133.199 161.524C126.888 163.537 120.624 163.398 114.307 160.755ZM134.969 152.208C134.342 151.562 133.823 150.663 133.07 150.31C127.552 147.723 121.976 147.76 116.443 150.279C115.659 150.636 115.025 151.351 114.215 151.983C116.427 154.524 119.125 155.083 121.801 155.413C126.424 155.982 130.964 155.782 134.969 152.208Z" fill="#030202"/>
<path d="M158.103 120.487C158.506 122.626 158.868 124.595 159.268 126.775C157.027 127.238 154.879 127.682 152.503 128.173C152.072 125.802 151.653 123.504 151.209 121.065C153.266 120.662 155.147 120.267 157.039 119.95C157.353 119.897 157.719 120.186 158.103 120.487Z" fill="white"/>
<path d="M127.196 132.919C126.311 132.994 125.616 133.038 124.808 133.09C124.631 130.662 124.465 128.386 124.292 126.014C126.478 125.716 128.502 125.44 130.732 125.136C131.156 127.415 131.574 129.656 132.04 132.159C130.445 132.409 128.916 132.649 127.196 132.919Z" fill="white"/>
<path d="M139.482 130.722C138.696 128.509 138.084 126.271 137.408 123.797C139.872 123.304 142.064 122.866 144.412 122.397C144.84 124.815 145.236 127.048 145.662 129.456C143.54 129.894 141.598 130.294 139.482 130.722Z" fill="white"/>
<path d="M54.8079 97.8908C55.2105 98.2095 55.648 98.5458 55.6097 98.8051C55.3048 100.867 54.9096 102.915 54.523 105.073C52.361 104.81 50.3187 104.561 48.1289 104.294C48.2492 101.876 48.3627 99.5947 48.4872 97.0934C50.6691 97.3706 52.6458 97.6217 54.8079 97.8908Z" fill="#080806"/>
<path d="M113.836 125.569C115.22 125.743 116.415 125.88 117.86 126.046C117.719 128.377 117.581 130.656 117.425 133.224C115.022 132.959 112.719 132.705 110.213 132.429C110.617 129.927 110.979 127.682 111.362 125.313C112.247 125.398 112.947 125.465 113.836 125.569Z" fill="white"/>
<path d="M26.0609 107.466C24.6697 107.859 23.4496 108.206 22.1016 108.591C21.4752 106.216 20.8935 104.011 20.2756 101.669C22.5035 101.028 24.6151 100.421 26.924 99.7569C27.5271 102.056 28.1037 104.254 28.7482 106.71C27.8253 106.971 27.0286 107.197 26.0609 107.466Z" fill="white"/>
<path d="M41.4338 103.989C39.3294 104.492 37.2998 104.804 35.1395 105.135C34.7311 102.711 34.3523 100.461 33.938 98.0018C36.3436 97.6873 38.5829 97.3947 41.1875 97.0542C41.2996 99.4083 41.4041 101.603 41.4338 103.989Z" fill="#080706"/>
<path d="M96.9481 128.352C96.7236 127.926 96.4826 127.52 96.5826 127.253C97.2855 125.379 98.0588 123.534 98.8878 121.486C100.937 122.241 102.903 122.965 105.021 123.745C104.364 126.062 103.743 128.252 103.06 130.658C100.958 129.875 99.0237 129.155 96.9481 128.352Z" fill="#060605"/>
<path d="M67.0691 101.344C67.9974 101.755 68.7746 102.085 69.7028 102.48C68.7583 104.729 67.8858 106.807 66.9639 109.003C64.8938 108.216 62.9794 107.489 60.8816 106.691C61.5162 104.483 62.1405 102.311 62.8419 99.8704C64.2702 100.359 65.594 100.811 67.0691 101.344Z" fill="white"/>
<path d="M81.6362 109.669C81.82 110.08 82.0233 110.52 81.8935 110.707C80.6794 112.448 79.4083 114.146 78.132 115.886C76.2631 114.566 74.559 113.362 72.7703 112.099C73.9316 110.026 75.0463 108.037 76.2564 105.878C78.0736 107.16 79.7873 108.37 81.6362 109.669Z" fill="white"/>
<path d="M91.9697 120.459C91.1819 121.899 90.4612 123.184 89.6331 124.662C87.6025 123.276 85.6593 121.949 83.5337 120.498C84.9446 118.505 86.2436 116.67 87.6377 114.701C89.4478 115.938 91.1521 117.103 93.0088 118.372C92.6714 119.043 92.3541 119.673 91.9697 120.459Z" fill="#070605"/>
<path d="M145.069 81.6236C150.943 88.5602 149.899 97.0863 142.468 101.86C135.601 106.27 128.47 106.254 121.395 102.239C118.489 100.59 118.014 100.565 115.481 102.749C112.111 105.656 107.205 105.922 103.645 103.392C99.5458 100.479 99.4512 95.0964 103.726 92.4814C105.535 91.3746 107.892 90.9175 110.031 90.8056C113.243 90.6375 113.825 90.3872 114.901 87.2955C117.433 80.0248 123.034 77.0835 129.866 76.3627C135.524 75.7659 140.676 77.3986 145.069 81.6236Z" fill="#4397CF"/>
<path d="M82.326 168.599C78.5141 172.845 74.2996 176.248 68.8948 177.378C66.889 177.797 64.4505 177.785 62.617 176.968C52.842 172.617 43.1188 168.119 33.5336 163.33C27.3528 160.242 24.4831 153.532 25.8099 146.795C27.4473 138.482 32.5395 133.018 39.6526 132.656C47.6754 132.249 55.7197 132.295 63.7551 132.184C64.5313 132.174 65.3092 132.455 66.0893 132.58C68.1431 132.91 69.5643 133.534 69.7609 136.276C70.011 139.765 72.0297 142.574 74.4629 144.906C76.8988 147.24 79.4662 149.425 81.9851 151.664C87.8811 156.906 88.2488 160.593 83.5063 167.072C83.1569 167.549 82.7899 168.013 82.326 168.599Z" fill="#87B237"/>
<path d="M134.899 152.348C130.964 155.782 126.424 155.982 121.801 155.413C119.125 155.083 116.427 154.524 114.216 151.983C115.025 151.351 115.66 150.636 116.443 150.279C121.976 147.76 127.553 147.723 133.07 150.31C133.823 150.663 134.342 151.562 134.899 152.348Z" fill="#89411B"/>
</g>
<defs>
<clipPath id="clip0_62_119">
<rect width="221" height="231" fill="white"/>
</clipPath>
</defs>
</svg>
