<svg width="200" height="200" viewBox="0 0 592 352" fill="none" xmlns="http://www.w3.org/2000/svg">
<rect width="592" height="352" fill="#353535"/>
<path d="M407 287.301C345.339 287.3 284.178 287.302 223.017 287.295C214.028 287.294 212.081 285.427 212.066 276.537C212.022 250.04 212.033 223.542 212.022 197.045C212.021 195.057 212.022 193.069 211.623 190.922C207.859 197.34 204.438 203.853 199.603 209.507C187.974 223.106 173.149 231.614 156.404 237.125C152.943 238.264 149.654 237.924 148.015 234.015C146.371 230.095 147.932 226.659 152.525 225.005C162.946 221.253 172.759 216.501 181.37 209.408C192.022 200.633 198.92 189.7 201.986 176.137C203.48 169.528 203.937 163.026 203.318 156.358C202.914 152.001 204.775 149.284 209.227 148.672C218.928 147.34 228.658 146.27 238.161 143.691C246.252 141.495 254.012 138.721 260.974 133.909C265.166 131.011 267.769 127.075 269.156 122.312C270.447 117.879 268.64 115.898 264.24 116.604C236.513 121.049 208.769 125.39 181.063 129.964C163.024 132.942 147.675 141.001 135.761 155.119C131.695 159.937 129.246 165.093 129.283 171.82C129.515 214.148 129.385 256.478 129.371 298.807C129.368 307.059 127.381 309.065 118.991 309.067C89.9938 309.073 60.9965 309.053 31.9992 309.018C23.8592 309.008 21.7796 306.869 21.7772 298.548C21.7649 255.052 21.7643 211.556 21.7727 168.06C21.7746 158.208 23.8517 156.006 33.7629 156.048C60.2554 156.159 86.748 156.342 113.238 156.662C117.108 156.709 119.573 155.616 121.892 152.303C136.045 132.08 155.992 121.106 179.967 116.926C188.965 115.358 197.992 113.947 207.032 112.647C210.995 112.078 212.233 110.019 212.039 106.198C211.794 101.379 211.95 96.5347 212.051 91.7036C212.196 84.7672 214.194 82.7711 221.08 82.7649C251.411 82.7378 281.741 82.7518 312.072 82.7492C394.898 82.7421 477.724 82.7337 560.549 82.7271C568.817 82.7264 571.086 85.0326 571.096 93.4576C571.109 105.123 571.103 116.789 571.121 128.454C571.131 134.601 569.155 136.805 563.032 137.404C540.569 139.603 524.99 153.291 521.909 175.581C519.863 190.381 526.153 208.209 544.334 217.869C550.127 220.947 556.204 222.919 562.942 222.797C568.105 222.704 570.714 225.634 570.764 230.978C570.909 246.469 571.034 261.961 571.034 277.452C571.034 284.694 568.282 287.297 560.984 287.299C509.823 287.312 458.661 287.303 407 287.301ZM557.725 113.464C557.722 109.965 557.731 106.466 557.714 102.968C557.676 95.3878 557.671 95.373 549.999 95.3728C444.856 95.3709 339.713 95.3746 234.57 95.3733C224.379 95.3731 224.083 95.7799 225.104 106.157C225.388 109.044 226.413 109.766 229.279 109.255C243.025 106.807 256.814 104.598 270.572 102.213C274.22 101.58 277.033 102.935 278.501 105.993C280.353 109.851 282.018 113.856 282.152 118.326C282.542 131.314 275.457 139.773 265.358 146.445C254.698 153.488 242.391 156.049 230.237 158.674C225.556 159.684 224.995 161.802 225.007 165.75C225.106 199.409 225.057 233.068 225.056 266.727C225.056 274.681 225.062 274.686 232.892 274.685C323.872 274.682 414.851 274.676 505.831 274.672C521.328 274.672 536.825 274.571 552.32 274.748C556.431 274.795 557.908 273.42 557.809 269.28C557.579 259.621 557.653 249.952 557.743 240.289C557.771 237.255 557.26 235.458 553.632 234.846C549.581 234.163 545.578 232.68 541.795 231.001C518.126 220.494 505.543 196.574 509.315 172.497C512.808 150.206 525.77 134.775 547.622 127.474C557.76 124.087 557.742 124.033 557.725 113.464ZM34.3415 250.5C34.3438 263.66 34.5488 276.825 34.2408 289.978C34.1298 294.717 35.7979 295.934 40.2529 295.909C63.4071 295.78 86.5626 295.913 109.718 295.929C116.666 295.933 116.735 295.895 116.745 289.131C116.806 251.15 116.767 213.169 116.953 175.188C116.975 170.664 115.703 169.13 111.037 169.166C87.7166 169.346 64.3942 169.19 41.0727 169.185C34.6523 169.183 34.4236 169.439 34.4141 176.037C34.3788 200.524 34.365 225.012 34.3415 250.5Z" fill="white"/>
<path d="M431.79 171.857C433.422 171.902 434.594 171.864 435.746 172.003C437.586 172.224 439.055 173.129 438.852 175.163C438.668 177.006 437.022 177.362 435.458 177.414C431.48 177.546 427.514 178.113 423.516 177.456C419.742 176.836 417.906 178.383 418.135 182.404C418.324 185.733 417.541 189.353 422.925 188.997C426.564 188.756 430.24 188.979 433.896 189.105C435.263 189.152 436.681 189.614 436.805 191.265C436.951 193.229 435.436 193.844 433.87 193.903C430.049 194.045 426.216 194.16 422.397 194.018C418.078 193.857 418.086 196.666 418.18 199.652C418.271 202.547 417.404 206.004 422.263 205.875C426.419 205.764 430.581 205.841 434.739 205.904C436.615 205.932 438.784 206.126 438.737 208.584C438.689 211.059 436.449 211.107 434.617 211.122C428.629 211.172 422.64 211.129 416.652 211.135C413.973 211.137 412.728 209.84 412.736 207.144C412.768 196.83 412.808 186.515 412.714 176.202C412.683 172.863 414.367 171.843 417.347 171.87C422.005 171.912 426.663 171.863 431.79 171.857Z" fill="white"/>
<path d="M379.735 187.006C379.743 182.851 379.739 179.193 379.763 175.537C379.775 173.686 380.363 172.172 382.514 172.128C384.56 172.087 385.604 173.486 385.676 175.292C385.829 179.086 385.723 182.892 385.723 186.966C393.111 183.414 395.122 172.624 406.049 172.003C403.194 177.895 399.522 181.466 395.864 184.893C392.285 188.247 392.189 190.725 395.784 194.251C400.591 198.966 404.809 204.283 409.511 209.603C405.912 212.1 403.766 210.904 401.665 208.597C397.338 203.846 392.916 199.18 388.62 194.572C385.833 195.863 386.011 197.975 385.949 199.928C385.875 202.253 385.959 204.583 385.893 206.909C385.833 209.08 385.251 211.028 382.56 210.896C380.144 210.777 379.769 208.92 379.764 206.954C379.748 200.471 379.744 193.988 379.735 187.006Z" fill="white"/>
<path d="M352.079 198.751C357.147 206.427 362.742 207.896 370.513 203.646C372.316 202.66 373.888 201.829 375.213 203.909C376.698 206.239 374.518 207.163 373.13 208.16C366.55 212.888 357.733 212.28 351.526 206.753C341.391 197.73 344.278 179.064 356.571 173.533C362.92 170.676 368.548 172.064 373.927 175.824C375.163 176.689 376.542 177.628 375.284 179.434C374.099 181.136 372.637 181.134 370.964 180.082C367.942 178.181 364.794 177.261 361.06 177.72C353.652 178.629 347.325 189.944 352.079 198.751Z" fill="white"/>
<path d="M313.83 207.507C313.781 199.065 313.582 191.065 313.826 183.078C313.956 178.818 312.64 176.734 308.174 177.25C307.192 177.364 306.178 177.239 305.181 177.176C303.674 177.081 302.607 176.442 302.607 174.761C302.608 173.176 303.532 172.124 305.024 172.109C312.843 172.031 320.664 172.031 328.484 172.13C329.93 172.149 330.94 173.203 330.94 174.777C330.941 176.433 329.823 177.102 328.345 177.214C327.019 177.316 325.678 177.388 324.353 177.309C321.141 177.116 319.908 178.556 319.95 181.76C320.059 190.086 319.987 198.414 319.924 206.742C319.911 208.42 319.7 210.244 317.667 210.741C315.434 211.287 314.203 210.154 313.83 207.507Z" fill="white"/>
<path d="M458.193 191.011C458.18 196.503 458.182 201.497 458.151 206.492C458.137 208.58 457.926 210.773 455.228 210.875C452.201 210.99 451.898 208.638 451.885 206.367C451.836 198.375 451.701 190.38 451.892 182.394C451.979 178.77 450.804 177.074 447.072 177.359C445.757 177.459 444.409 177.308 443.093 177.14C441.806 176.976 440.981 176.228 440.911 174.841C440.829 173.23 441.687 172.142 443.187 172.122C451.005 172.017 458.824 172.012 466.642 172.07C468.112 172.08 469.148 173.012 469.156 174.62C469.165 176.544 467.862 177.02 466.215 177.287C458.187 178.591 458.191 178.617 458.192 187.018C458.192 188.183 458.193 189.348 458.193 191.011Z" fill="white"/>
<path d="M340.273 206.654C340.187 209.043 339.955 210.992 337.353 210.735C335.212 210.523 334.901 208.707 334.894 207.001C334.851 196.715 334.848 186.428 334.876 176.141C334.882 174.222 335.273 172.226 337.72 172.282C340.275 172.341 340.25 174.498 340.256 176.334C340.287 186.289 340.276 196.244 340.273 206.654Z" fill="white"/>
</svg>
